<?xml version="1.0" encoding="UTF-8" standalone="no"?>
<!-- Created with Inkscape (http://www.inkscape.org/) -->

<svg
   xmlns:dc="http://purl.org/dc/elements/1.1/"
   xmlns:cc="http://creativecommons.org/ns#"
   xmlns:rdf="http://www.w3.org/1999/02/22-rdf-syntax-ns#"
   xmlns:svg="http://www.w3.org/2000/svg"
   xmlns="http://www.w3.org/2000/svg"
   xmlns:sodipodi="http://sodipodi.sourceforge.net/DTD/sodipodi-0.dtd"
   xmlns:inkscape="http://www.inkscape.org/namespaces/inkscape"
   width="60"
   height="59"
   id="svg3121"
   version="1.1"
   inkscape:version="0.48.2 r9819"
   sodipodi:docname="Simple_Alert.svg">
  <defs
     id="defs3123">
    <linearGradient
       y2="527.55499"
       x2="118.931"
       y1="616.47699"
       x1="41.194901"
       gradientTransform="matrix(4.7471912,0,0,-4.495359,67.486876,3097.7954)"
       gradientUnits="userSpaceOnUse"
       id="g1">
      <stop
         id="stop3134"
         offset="0"
         stop-color="#b00" />
      <stop
         id="stop3136"
         offset="1"
         stop-color="#5f0000" />
    </linearGradient>
    <linearGradient
       y2="211.23"
       x2="174.80499"
       y1="486.63101"
       x1="530.81"
       gradientTransform="matrix(0.960006,0,0,0.960006,40.591064,254.25075)"
       gradientUnits="userSpaceOnUse"
       id="g2">
      <stop
         id="stop3139"
         offset="0"
         stop-color="#9a0000" />
      <stop
         id="stop3141"
         offset="1"
         stop-color="#f22803" />
    </linearGradient>
    <linearGradient
       y2="483.10001"
       x2="581.83698"
       y1="224.599"
       x1="187.87399"
       gradientTransform="matrix(0.960006,0,0,0.960006,40.591064,254.25074)"
       gradientUnits="userSpaceOnUse"
       id="g3">
      <stop
         id="stop3144"
         offset="0"
         stop-color="#ec6c60" />
      <stop
         id="stop3146"
         offset="1"
         stop-color="#d11412" />
    </linearGradient>
    <linearGradient
       y2="264.54199"
       x2="412.09399"
       y1="101.536"
       x1="250.39799"
       gradientTransform="matrix(0.960006,0,0,0.960006,426.30535,68.536464)"
       gradientUnits="userSpaceOnUse"
       id="g4">
      <stop
         id="stop3149"
         offset="0"
         stop-color="#ffd9d9" />
      <stop
         id="stop3151"
         offset="1"
         stop-color="#ff2727" />
    </linearGradient>
    <radialGradient
       r="179.55"
       cy="186.09599"
       cx="295.47101"
       gradientTransform="matrix(1.1906837e-8,1.5952528,-0.9131339,-2.2564879e-5,510.50993,-31.246444)"
       gradientUnits="userSpaceOnUse"
       id="g5">
      <stop
         id="stop3154"
         offset="0"
         stop-color="#fff" />
      <stop
         id="stop3156"
         offset="0.5"
         stop-color="#fff" />
      <stop
         id="stop3158"
         offset="1"
         stop-color="#d5d5d5" />
    </radialGradient>
  </defs>
  <sodipodi:namedview
     id="base"
     pagecolor="#ffffff"
     bordercolor="#666666"
     borderopacity="1.0"
     inkscape:pageopacity="0.0"
     inkscape:pageshadow="2"
     inkscape:zoom="1"
     inkscape:cx="281.87786"
     inkscape:cy="164.69667"
     inkscape:document-units="px"
     inkscape:current-layer="layer1"
     showgrid="false"
     inkscape:window-width="1680"
     inkscape:window-height="988"
     inkscape:window-x="-8"
     inkscape:window-y="-8"
     inkscape:window-maximized="1"
     fit-margin-top="0"
     fit-margin-left="0"
     fit-margin-right="0"
     fit-margin-bottom="0" />
  <metadata
     id="metadata3126">
    <rdf:RDF>
      <cc:Work
         rdf:about="">
        <dc:format>image/svg+xml</dc:format>
        <dc:type
           rdf:resource="http://purl.org/dc/dcmitype/StillImage" />
        <dc:title />
      </cc:Work>
    </rdf:RDF>
  </metadata>
  <g
     inkscape:label="レイヤー 1"
     inkscape:groupmode="layer"
     id="layer1"
     transform="translate(-0.00185737,-993.21959)">
    <g
       id="g3815"
       transform="matrix(0.12448229,0,0,0.14400257,0.00162616,900.69726)">
      <path
         inkscape:connector-curvature="0"
         style="fill-opacity:0.17857098"
         d="m 221.20867,675.55616 c 0,0 -208.994874,344.74564 -208.994874,344.74564 -4.0102899,6.585 -4.0102899,14.7194 0,21.3044 3.933089,6.5075 11.336632,10.6134 19.357051,10.6134 l 417.989993,0 c 7.9433,0 15.34676,-4.1059 19.35697,-10.6134 3.93309,-6.585 3.93309,-14.7194 0,-21.3044 L 259.92262,675.55616 c -4.01021,-6.58499 -11.41368,-10.691 -19.35697,-10.691 -7.9433,0 -15.34677,4.10601 -19.35698,10.691 z"
         id="path3160" />
      <path
         inkscape:connector-curvature="0"
         style="fill:#8c0000;fill-opacity:1"
         d="m 220.86392,653.64252 c 0,0 -217.7287133,359.15278 -217.7287133,359.15278 -4.1777991,6.8602 -4.1777991,15.3345 0,22.1947 4.0975412,6.7795 11.8104013,11.057 20.1660833,11.057 l 435.45784,0 c 8.27526,0 15.98812,-4.2775 20.16592,-11.057 4.09746,-6.8602 4.09746,-15.3345 0,-22.1947 L 261.19659,653.64252 c -4.17864,-6.86027 -11.89149,-11.13782 -20.16675,-11.13782 -8.27526,0 -15.98812,4.27755 -20.16592,11.13782 z"
         id="path3162" />
      <path
         inkscape:connector-curvature="0"
         style="fill:#ffffff"
         d="M 229.9426,756.78766 98.421414,973.65187 c -2.249581,3.79328 -2.249581,8.47434 0,12.18691 2.249586,3.79328 6.507726,6.13382 11.087236,6.13382 l 262.96285,0 c 4.57868,0 8.83766,-2.34054 11.08724,-6.13382 2.24958,-3.79327 2.24958,-8.39363 0,-12.18691 L 252.11791,756.78766 c -2.24958,-3.79328 -6.50772,-6.13382 -11.08807,-6.13382 -4.57868,0 -8.83766,2.34054 -11.08724,6.13382 z"
         id="path3170" />
      <path
         inkscape:connector-curvature="0"
         d="m 230.05066,984.52922 c -5.68353,-3.15055 -10.01182,-10.72665 -10.01182,-17.52387 0,-12.65556 11.42575,-22.18979 22.23543,-18.55335 7.29251,2.45279 12.24886,10.07053 12.18827,18.73163 -0.0517,7.35763 -2.80263,12.77831 -8.41861,16.58572 -4.29862,2.91529 -11.49013,3.25651 -15.99327,0.75987 z m 1.29148,-49.97489 c -0.71013,-0.45154 -2.3835,-2.02535 -3.7179,-3.49615 -4.66283,-5.14083 -4.65653,-5.09554 -7.69586,-60.09728 -2.70162,-48.89354 -2.72435,-49.6534 -1.56479,-53.16563 2.60757,-7.90124 8.41924,-11.36159 18.0946,-10.77415 6.15063,0.3741 10.88732,2.87438 13.96642,7.37225 2.62967,3.84175 3.20156,6.01396 3.19903,12.15141 -0.002,6.67009 -3.68318,88.46545 -4.20646,93.47769 -0.68488,6.56561 -3.99626,11.89276 -8.85036,14.23888 -2.77296,1.34073 -7.34932,1.48614 -9.22468,0.29298 z"
         id="path3172" />
      <path
         inkscape:connector-curvature="0"
         id="path3813"
         d="M 13.803322,1043.2598 C 2.2511861,1037.4976 -2.2459496,1025.6265 3.0305772,1014.8229 6.9743134,1006.7482 222.18406,652.79928 224.77972,650.11884 c 9.32711,-9.63173 25.50442,-8.87622 33.87498,1.58202 3.30939,4.13476 216.49855,355.42664 220.49609,363.33224 5.15689,10.1983 0.72061,22.3245 -10.14883,27.7409 l -5.11494,2.5489 -223.05364,-0.04 c -220.388097,-0.039 -223.101176,-0.063 -227.030058,-2.0232 z M 378.67252,990.80675 c 4.10282,-1.94691 6.60719,-6.23053 6.60719,-11.3013 0,-4.46274 5.80982,5.41056 -84.25397,-143.18253 -52.4706,-86.5694 -52.0756,-86 -59.6595,-86 -8.55299,0 -5.09769,-5.09472 -77.36085,114.06596 -45.83573,75.58232 -67.124758,111.56613 -67.458181,114.02128 -0.621435,4.57593 1.798782,9.37266 6.031061,11.95323 3.13336,1.91053 6.06933,1.95212 138.05032,1.95578 118.43805,0.003 135.23769,-0.18077 138.04393,-1.51242 l 0,0 z"
         style="opacity:0.71380472;fill:#ff9f00;fill-opacity:1;stroke:#656565;stroke-width:1.06700003;stroke-linecap:round;stroke-miterlimit:4;stroke-opacity:1;stroke-dasharray:none" />
    </g>
  </g>
</svg>
