<?xml version="1.0" encoding="utf-8"?>
<!-- Generator: Adobe Illustrator 16.0.0, SVG Export Plug-In . SVG Version: 6.00 Build 0)  -->
<!DOCTYPE svg PUBLIC "-//W3C//DTD SVG 1.0//EN" "http://www.w3.org/TR/2001/REC-SVG-20010904/DTD/svg10.dtd">
<svg version="1.0" id="Layer_1" xmlns="http://www.w3.org/2000/svg" xmlns:xlink="http://www.w3.org/1999/xlink" x="0px" y="0px"
	 width="131.324px" height="80px" viewBox="0 16.268 131.324 80" enable-background="new 0 16.268 131.324 80" xml:space="preserve"
	>
<g id="Shape_1">
	<g>
		<polygon fill="#209DD3" points="2.746,65.471 129.554,65.471 129.554,33.511 		"/>
	</g>
</g>
<g id="Shape_2">
	<g>
		<path fill="#0B3357" d="M129.561,17.268c0,0-48.849,17.146-60.576,19.336c-20.619,4.509-31.058-9.922-46.136-4.124
			C9.833,36.604,9.961,57.61,3.518,63.15c0.129,0,4.382-1.158,4.382-1.289c3.222-20.36,18.944-35.438,35.31-9.277
			c8.248-1.934,86.343-21.134,86.343-21.134L129.561,17.268z"/>
	</g>
</g>
<g>
	<path fill="#FFFFFF" d="M107.902,42.275v12.459c0.645,4.209,8.422,8.935,8.422,8.935s8.033-5.069,8.505-8.852V42.275
		C121.478,41.328,110.747,41.582,107.902,42.275z"/>
</g>
<polygon fill="#E62003" points="114.477,42.017 114.477,49.49 108.591,49.49 108.591,53.399 114.477,53.399 114.477,62.427 
	118.132,62.427 118.132,53.271 124.229,53.271 124.229,49.49 118.128,49.49 118.128,42.017 "/>
<g>
	<path fill="#0B3357" d="M116.962,43.062c2.69,0,4.99,0.129,6.463,0.355v11.301c-0.331,1.991-4.12,5.263-7.112,7.281
		c-2.754-1.813-6.555-5.018-7.003-7.385V43.452C111.067,43.218,114.01,43.062,116.962,43.062 M116.962,41.657
		c-3.717,0-7.529,0.246-9.06,0.618v12.459c0.645,4.209,8.422,8.935,8.422,8.935s8.033-5.069,8.505-8.852V42.275
		C123.28,41.839,120.155,41.657,116.962,41.657L116.962,41.657z"/>
</g>
<text transform="matrix(1.05 0 0 1 74.666 93.3076)" fill="#0B3357" font-family="'ArialMT'" font-size="12.8871">academy</text>
<g>
	<path fill="#0B3357" d="M3.041,75.535c0-1.065,0.321-1.941,0.967-2.633c0.644-0.688,1.513-1.032,2.608-1.032
		c1.252,0,2.199,0.404,2.839,1.213c0.513,0.655,0.772,1.459,0.772,2.411c0,1.074-0.32,1.955-0.958,2.641
		c-0.638,0.683-1.521,1.025-2.648,1.025c-1.005,0-1.817-0.282-2.437-0.853C3.422,77.6,3.041,76.677,3.041,75.535z M5.444,75.528
		c0,0.621,0.112,1.082,0.338,1.378c0.227,0.299,0.509,0.447,0.851,0.447c0.346,0,0.629-0.147,0.851-0.44
		c0.222-0.294,0.333-0.764,0.333-1.412c0-0.604-0.113-1.054-0.336-1.351s-0.5-0.443-0.83-0.443c-0.35,0-0.639,0.149-0.867,0.45
		C5.558,74.459,5.444,74.914,5.444,75.528z"/>
	<path fill="#0B3357" d="M10.72,72.027h2.244v1.143c0.216-0.498,0.438-0.835,0.668-1.021c0.229-0.188,0.513-0.28,0.852-0.28
		c0.353,0,0.74,0.122,1.159,0.368l-0.741,1.905c-0.284-0.132-0.507-0.2-0.673-0.2c-0.314,0-0.556,0.146-0.73,0.437
		c-0.249,0.405-0.373,1.168-0.373,2.284v2.339H10.72V72.027z"/>
	<path fill="#0B3357" d="M15.571,72.027h2.238v1.019c0.321-0.426,0.647-0.728,0.976-0.906c0.329-0.181,0.726-0.269,1.189-0.269
		c0.5,0,0.895,0.099,1.187,0.295c0.291,0.197,0.529,0.491,0.713,0.882c0.378-0.457,0.721-0.767,1.03-0.932
		c0.309-0.163,0.692-0.245,1.147-0.245c0.671,0,1.194,0.223,1.569,0.666c0.376,0.444,0.566,1.142,0.566,2.087v4.38h-2.404v-3.973
		c0-0.316-0.055-0.552-0.165-0.703c-0.16-0.241-0.359-0.361-0.598-0.361c-0.282,0-0.508,0.114-0.681,0.34
		c-0.172,0.228-0.258,0.595-0.258,1.097v3.601h-2.402V75.16c0-0.306-0.015-0.514-0.047-0.623c-0.051-0.176-0.141-0.317-0.265-0.424
		c-0.127-0.107-0.274-0.161-0.444-0.161c-0.275,0-0.502,0.118-0.679,0.348c-0.177,0.232-0.266,0.615-0.266,1.145v3.56h-2.402v-6.977
		H15.571z"/>
	<path fill="#0B3357" d="M27.016,69.373h2.398v1.818h-2.398V69.373z M27.016,72.027h2.398v6.977h-2.398V72.027z"/>
	<path fill="#0B3357" d="M29.829,77.065l2.38-0.251c0.098,0.316,0.236,0.539,0.411,0.676c0.177,0.136,0.413,0.203,0.706,0.203
		c0.322,0,0.571-0.077,0.748-0.228c0.138-0.115,0.207-0.257,0.207-0.428c0-0.192-0.09-0.341-0.271-0.444
		c-0.129-0.075-0.473-0.168-1.03-0.275c-0.833-0.162-1.41-0.312-1.734-0.45c-0.323-0.139-0.597-0.37-0.818-0.699
		c-0.222-0.328-0.333-0.702-0.333-1.122c0-0.459,0.119-0.854,0.36-1.188c0.239-0.332,0.568-0.581,0.989-0.744
		c0.42-0.163,0.985-0.246,1.691-0.246c0.746,0,1.296,0.063,1.651,0.189c0.355,0.129,0.651,0.323,0.89,0.593
		c0.237,0.266,0.436,0.628,0.591,1.083l-2.272,0.251c-0.059-0.225-0.158-0.39-0.295-0.495c-0.188-0.14-0.416-0.209-0.683-0.209
		c-0.271,0-0.467,0.054-0.592,0.162c-0.123,0.104-0.185,0.236-0.185,0.387c0,0.172,0.078,0.302,0.236,0.387
		c0.157,0.088,0.499,0.167,1.024,0.237c0.797,0.1,1.39,0.241,1.778,0.421c0.389,0.179,0.687,0.437,0.893,0.767
		c0.205,0.333,0.31,0.699,0.31,1.097c0,0.403-0.11,0.794-0.328,1.175c-0.217,0.382-0.56,0.684-1.03,0.908
		c-0.468,0.225-1.108,0.337-1.916,0.337c-1.143,0-1.958-0.181-2.442-0.545C30.277,78.251,29.966,77.734,29.829,77.065z"/>
	<path fill="#0B3357" d="M39.73,70.062v1.962h1.32v1.96h-1.32v2.472c0,0.297,0.027,0.494,0.077,0.589
		c0.078,0.146,0.215,0.224,0.412,0.224c0.175,0,0.424-0.057,0.742-0.171l0.177,1.846c-0.594,0.145-1.147,0.217-1.661,0.217
		c-0.596,0-1.036-0.088-1.32-0.258c-0.282-0.17-0.491-0.431-0.628-0.778c-0.134-0.349-0.203-0.909-0.203-1.687v-2.455h-0.884v-1.958
		h0.884v-1.959L39.73,70.062z"/>
	<path fill="#0B3357" d="M41.188,75.535c0-1.065,0.322-1.941,0.966-2.633c0.643-0.688,1.513-1.032,2.608-1.032
		c1.253,0,2.199,0.404,2.838,1.213c0.514,0.655,0.771,1.459,0.771,2.411c0,1.074-0.318,1.955-0.956,2.641
		c-0.639,0.683-1.521,1.025-2.648,1.025c-1.005,0-1.818-0.282-2.438-0.853C41.569,77.6,41.188,76.677,41.188,75.535z M43.592,75.528
		c0,0.621,0.112,1.082,0.338,1.378c0.227,0.299,0.51,0.447,0.851,0.447c0.345,0,0.629-0.147,0.851-0.44
		c0.222-0.294,0.333-0.764,0.333-1.412c0-0.604-0.113-1.054-0.336-1.351c-0.225-0.297-0.501-0.443-0.83-0.443
		c-0.351,0-0.639,0.149-0.867,0.45C43.706,74.459,43.592,74.914,43.592,75.528z"/>
	<path fill="#0B3357" d="M48.855,72.027h2.232v1.137c0.334-0.465,0.673-0.795,1.015-0.994c0.341-0.2,0.758-0.3,1.247-0.3
		c0.665,0,1.185,0.218,1.56,0.659c0.374,0.438,0.562,1.122,0.562,2.04v4.435h-2.409v-3.836c0-0.439-0.072-0.749-0.217-0.932
		c-0.146-0.181-0.35-0.27-0.613-0.27c-0.291,0-0.527,0.123-0.707,0.368c-0.179,0.246-0.271,0.685-0.271,1.318v3.351h-2.398V72.027z"
		/>
	<path fill="#0B3357" d="M59.73,69.373h2.421v3.337c0.239-0.279,0.513-0.493,0.816-0.631c0.304-0.141,0.641-0.209,1.011-0.209
		c0.761,0,1.39,0.306,1.889,0.914c0.499,0.611,0.749,1.489,0.749,2.633c0,0.763-0.115,1.433-0.343,2.015
		c-0.228,0.577-0.543,1.013-0.944,1.301c-0.403,0.285-0.85,0.431-1.342,0.431c-0.419,0-0.805-0.102-1.153-0.303
		c-0.265-0.158-0.551-0.454-0.86-0.888v1.031H59.73V69.373z M62.133,75.494c0,0.601,0.101,1.033,0.304,1.304
		c0.202,0.271,0.459,0.404,0.768,0.404c0.286,0,0.526-0.134,0.722-0.396c0.193-0.265,0.292-0.711,0.292-1.338
		c0-0.551-0.095-0.956-0.286-1.214c-0.19-0.259-0.421-0.388-0.692-0.388c-0.326,0-0.593,0.135-0.798,0.404
		C62.236,74.539,62.133,74.948,62.133,75.494z"/>
	<path fill="#0B3357" d="M66.804,75.535c0-1.065,0.322-1.941,0.967-2.633c0.642-0.688,1.514-1.032,2.608-1.032
		c1.253,0,2.199,0.404,2.84,1.213c0.514,0.655,0.771,1.459,0.771,2.411c0,1.074-0.319,1.955-0.956,2.641
		c-0.639,0.683-1.521,1.025-2.649,1.025c-1.003,0-1.815-0.282-2.438-0.853C67.184,77.6,66.804,76.677,66.804,75.535z M69.208,75.528
		c0,0.621,0.113,1.082,0.339,1.378c0.226,0.299,0.508,0.447,0.852,0.447c0.345,0,0.628-0.147,0.85-0.44
		c0.223-0.294,0.333-0.764,0.333-1.412c0-0.604-0.112-1.054-0.336-1.351s-0.499-0.443-0.829-0.443c-0.35,0-0.64,0.149-0.867,0.45
		C69.321,74.459,69.208,74.914,69.208,75.528z"/>
	<path fill="#0B3357" d="M74.53,69.373h2.402v9.628H74.53V69.373z"/>
	<path fill="#0B3357" d="M77.821,69.373h2.397v1.818h-2.397V69.373z M77.821,72.027h2.397v6.977h-2.397V72.027z"/>
	<path fill="#0B3357" d="M81.059,72.027h2.232v1.137c0.333-0.465,0.671-0.795,1.012-0.994c0.344-0.2,0.759-0.3,1.25-0.3
		c0.663,0,1.182,0.218,1.558,0.659c0.375,0.438,0.562,1.122,0.562,2.04v4.435h-2.407v-3.836c0-0.439-0.074-0.749-0.219-0.932
		c-0.146-0.181-0.351-0.27-0.612-0.27c-0.291,0-0.526,0.123-0.708,0.368c-0.178,0.246-0.27,0.685-0.27,1.318v3.351h-2.397V72.027z"
		/>
	<path fill="#0B3357" d="M92.798,72.027h2.244v6.587l0.006,0.311c0,0.438-0.084,0.854-0.251,1.25
		c-0.167,0.397-0.388,0.719-0.665,0.964c-0.275,0.246-0.629,0.424-1.055,0.532c-0.425,0.109-0.913,0.165-1.463,0.165
		c-1.257,0-2.118-0.21-2.587-0.63c-0.47-0.422-0.704-0.984-0.704-1.689c0-0.086,0.005-0.204,0.011-0.354l2.327,0.296
		c0.06,0.239,0.148,0.406,0.271,0.498c0.176,0.135,0.397,0.204,0.665,0.204c0.346,0,0.604-0.102,0.773-0.31
		c0.172-0.206,0.257-0.565,0.257-1.076v-1.061c-0.236,0.312-0.472,0.536-0.708,0.677c-0.368,0.221-0.768,0.329-1.195,0.329
		c-0.837,0-1.513-0.408-2.026-1.223c-0.365-0.578-0.548-1.342-0.548-2.292c0-1.088,0.236-1.914,0.706-2.484
		c0.471-0.568,1.087-0.854,1.849-0.854c0.488,0,0.889,0.091,1.207,0.274c0.315,0.184,0.611,0.491,0.886,0.915V72.027L92.798,72.027z
		 M90.544,75.409c0,0.503,0.096,0.877,0.289,1.121c0.191,0.244,0.445,0.365,0.76,0.365c0.297,0,0.548-0.126,0.75-0.379
		c0.202-0.251,0.304-0.631,0.304-1.141c0-0.506-0.105-0.896-0.317-1.164c-0.213-0.269-0.472-0.404-0.779-0.404
		c-0.306,0-0.551,0.124-0.732,0.371C90.634,74.427,90.544,74.836,90.544,75.409z"/>
	<path fill="#0B3357" d="M95.85,69.373h2.422v3.337c0.238-0.279,0.513-0.493,0.815-0.631c0.304-0.141,0.641-0.209,1.011-0.209
		c0.762,0,1.392,0.306,1.89,0.914c0.499,0.61,0.749,1.489,0.749,2.633c0,0.763-0.112,1.433-0.34,2.015
		c-0.23,0.577-0.545,1.013-0.946,1.301c-0.4,0.285-0.849,0.431-1.339,0.431c-0.419,0-0.806-0.102-1.157-0.303
		c-0.263-0.158-0.548-0.454-0.858-0.888v1.031h-2.243v-9.631H95.85z M98.252,75.494c0,0.601,0.102,1.033,0.305,1.304
		s0.458,0.404,0.768,0.404c0.288,0,0.528-0.134,0.722-0.396c0.194-0.265,0.293-0.711,0.293-1.338c0-0.551-0.096-0.956-0.285-1.214
		c-0.191-0.259-0.422-0.388-0.693-0.388c-0.325,0-0.593,0.135-0.797,0.404C98.356,74.539,98.252,74.948,98.252,75.494z"/>
	<path fill="#0B3357" d="M103.282,72.027h2.246v1.143c0.214-0.498,0.438-0.835,0.669-1.021c0.228-0.188,0.511-0.28,0.85-0.28
		c0.354,0,0.74,0.122,1.162,0.368l-0.743,1.905c-0.281-0.132-0.507-0.2-0.671-0.2c-0.315,0-0.559,0.146-0.732,0.437
		c-0.247,0.405-0.37,1.168-0.37,2.284v2.339h-2.41V72.027z"/>
	<path fill="#0B3357" d="M107.535,75.535c0-1.065,0.322-1.941,0.967-2.633c0.644-0.688,1.513-1.032,2.609-1.032
		c1.251,0,2.196,0.404,2.838,1.213c0.514,0.655,0.771,1.459,0.771,2.411c0,1.074-0.321,1.955-0.957,2.641
		c-0.64,0.683-1.521,1.025-2.649,1.025c-1.004,0-1.818-0.282-2.438-0.853C107.915,77.6,107.535,76.677,107.535,75.535z
		 M109.938,75.528c0,0.621,0.112,1.082,0.34,1.378c0.226,0.299,0.509,0.447,0.851,0.447c0.346,0,0.628-0.147,0.85-0.44
		c0.223-0.294,0.334-0.764,0.334-1.412c0-0.604-0.113-1.054-0.334-1.351c-0.228-0.297-0.501-0.443-0.833-0.443
		c-0.349,0-0.638,0.149-0.865,0.45C110.053,74.459,109.938,74.914,109.938,75.528z"/>
	<path fill="#0B3357" d="M115.203,69.373h2.451v4.971l1.788-2.316h2.951l-2.243,2.442l2.372,4.534h-2.701l-1.265-2.796l-0.904,0.98
		v1.815h-2.449V69.373L115.203,69.373z"/>
	<path fill="#0B3357" d="M129.261,76.18h-4.808c0.042,0.429,0.148,0.746,0.313,0.958c0.232,0.304,0.534,0.454,0.907,0.454
		c0.235,0,0.459-0.065,0.673-0.199c0.128-0.082,0.268-0.229,0.418-0.439l2.361,0.244c-0.362,0.7-0.797,1.203-1.308,1.508
		s-1.243,0.455-2.197,0.455c-0.828,0-1.479-0.13-1.956-0.392c-0.475-0.261-0.867-0.672-1.18-1.24c-0.313-0.566-0.469-1.233-0.469-2
		c0-1.09,0.313-1.974,0.94-2.648c0.624-0.674,1.49-1.012,2.593-1.012c0.896,0,1.604,0.149,2.123,0.453
		c0.519,0.302,0.91,0.74,1.183,1.314c0.273,0.574,0.405,1.32,0.405,2.24V76.18L129.261,76.18z M126.822,74.896
		c-0.047-0.516-0.171-0.887-0.376-1.108c-0.201-0.225-0.469-0.336-0.796-0.336c-0.38,0-0.685,0.169-0.912,0.506
		c-0.146,0.21-0.238,0.523-0.277,0.938H126.822z"/>
</g>
<text transform="matrix(1.0798 -0.2622 0.236 0.9718 46.5576 49.3457)" fill="#F7A30C" font-family="'MinionPro-Regular'" font-size="6.7272" letter-spacing="0.9">LUCERE ~ AUDE</text>
</svg>
