<?xml version="1.0" encoding="utf-8"?>
<!-- Generator: Adobe Illustrator 16.0.0, SVG Export Plug-In . SVG Version: 6.00 Build 0)  -->
<!DOCTYPE svg PUBLIC "-//W3C//DTD SVG 1.1//EN" "http://www.w3.org/Graphics/SVG/1.1/DTD/svg11.dtd">
<svg version="1.1" id="Layer_1" xmlns="http://www.w3.org/2000/svg" xmlns:xlink="http://www.w3.org/1999/xlink" x="0px" y="0px"
	 width="131.324px" height="82.5px" viewBox="0 16.25 131.324 82.5" enable-background="new 0 16.25 131.324 82.5"
	 xml:space="preserve">
<g id="Shape_1">
	<g>
		<polygon fill="#209DD3" points="2.746,65.471 129.555,65.471 129.555,33.511 		"/>
	</g>
</g>
<g id="Shape_2">
	<g>
		<path fill="#0B3357" d="M129.561,17.268c0,0-48.849,17.146-60.576,19.336c-20.618,4.509-31.058-9.922-46.135-4.124
			C9.833,36.604,9.961,57.609,3.518,63.15c0.129,0,4.382-1.158,4.382-1.289c3.222-20.36,18.944-35.438,35.31-9.277
			c8.248-1.934,86.343-21.134,86.343-21.134L129.561,17.268z"/>
	</g>
</g>
<g>
	<path fill="#FFFFFF" d="M107.902,42.275v12.459c0.645,4.209,8.422,8.935,8.422,8.935s8.033-5.069,8.505-8.853V42.275
		C121.479,41.328,110.747,41.582,107.902,42.275z"/>
</g>
<polygon fill="#E62003" points="114.477,42.018 114.477,49.49 108.591,49.49 108.591,53.398 114.477,53.398 114.477,62.427 
	118.132,62.427 118.132,53.271 124.229,53.271 124.229,49.49 118.128,49.49 118.128,42.018 "/>
<g>
	<path fill="#0B3357" d="M116.962,43.062c2.69,0,4.99,0.129,6.463,0.354v11.301c-0.331,1.991-4.12,5.263-7.112,7.281
		c-2.754-1.813-6.555-5.019-7.002-7.385V43.452C111.066,43.218,114.01,43.062,116.962,43.062 M116.962,41.657
		c-3.717,0-7.528,0.245-9.06,0.618v12.459c0.645,4.209,8.422,8.935,8.422,8.935s8.033-5.069,8.505-8.853V42.275
		C123.279,41.839,120.154,41.657,116.962,41.657L116.962,41.657z"/>
</g>
<text transform="matrix(1.05 0 0 1 74.666 93.3076)" display="none" fill="#0B3357" enable-background="new    " font-family="'ArialMT'" font-size="12.8871">academy</text>
<g enable-background="new    ">
	<path fill="#0B3357" d="M80.137,92.483c-0.44,0.356-0.864,0.608-1.271,0.755c-0.408,0.146-0.846,0.221-1.312,0.221
		c-0.77,0-1.363-0.18-1.777-0.539c-0.414-0.357-0.621-0.816-0.621-1.374c0-0.327,0.078-0.626,0.235-0.897
		c0.156-0.27,0.36-0.487,0.614-0.65c0.254-0.164,0.539-0.287,0.855-0.371c0.233-0.059,0.586-0.115,1.057-0.17
		c0.961-0.109,1.668-0.24,2.121-0.391c0.005-0.155,0.008-0.254,0.008-0.296c0-0.462-0.113-0.786-0.338-0.976
		c-0.304-0.256-0.756-0.383-1.354-0.383c-0.561,0-0.973,0.093-1.24,0.279c-0.266,0.188-0.463,0.518-0.591,0.991l-1.163-0.151
		c0.105-0.474,0.28-0.856,0.522-1.148c0.242-0.291,0.593-0.516,1.05-0.673c0.459-0.157,0.989-0.235,1.593-0.235
		c0.599,0,1.086,0.066,1.46,0.201c0.375,0.134,0.65,0.303,0.826,0.506s0.3,0.461,0.37,0.771c0.04,0.192,0.06,0.541,0.06,1.044v1.511
		c0,1.053,0.025,1.719,0.076,1.998c0.051,0.278,0.15,0.546,0.301,0.802h-1.242C80.252,93.072,80.172,92.798,80.137,92.483z
		 M80.037,89.953c-0.432,0.168-1.078,0.311-1.941,0.428c-0.49,0.068-0.836,0.144-1.038,0.227c-0.202,0.084-0.358,0.207-0.469,0.369
		c-0.11,0.161-0.165,0.34-0.165,0.537c0,0.303,0.119,0.555,0.359,0.756s0.592,0.302,1.055,0.302c0.457,0,0.865-0.095,1.222-0.286
		s0.619-0.452,0.786-0.783c0.128-0.256,0.191-0.634,0.191-1.133V89.953z"/>
	<path fill="#0B3357" d="M87.662,90.859l1.17,0.145c-0.129,0.769-0.455,1.369-0.981,1.803c-0.526,0.436-1.173,0.652-1.939,0.652
		c-0.96,0-1.731-0.299-2.315-0.896s-0.875-1.455-0.875-2.571c0-0.722,0.125-1.353,0.376-1.894s0.634-0.947,1.146-1.218
		s1.071-0.405,1.675-0.405c0.762,0,1.385,0.184,1.869,0.55c0.484,0.367,0.795,0.889,0.932,1.563l-1.156,0.17
		c-0.109-0.449-0.305-0.786-0.584-1.013s-0.618-0.34-1.015-0.34c-0.599,0-1.085,0.204-1.46,0.613s-0.562,1.056-0.562,1.941
		c0,0.897,0.181,1.55,0.542,1.957s0.832,0.61,1.414,0.61c0.467,0,0.856-0.137,1.169-0.409
		C87.381,91.846,87.578,91.426,87.662,90.859z"/>
	<path fill="#0B3357" d="M94.428,92.483c-0.44,0.356-0.864,0.608-1.271,0.755c-0.408,0.146-0.846,0.221-1.312,0.221
		c-0.77,0-1.363-0.18-1.777-0.539c-0.414-0.357-0.621-0.816-0.621-1.374c0-0.327,0.078-0.626,0.235-0.897
		c0.156-0.27,0.36-0.487,0.614-0.65c0.254-0.164,0.539-0.287,0.855-0.371c0.233-0.059,0.586-0.115,1.057-0.17
		c0.961-0.109,1.668-0.24,2.121-0.391c0.005-0.155,0.008-0.254,0.008-0.296c0-0.462-0.113-0.786-0.338-0.976
		c-0.304-0.256-0.756-0.383-1.354-0.383c-0.561,0-0.973,0.093-1.24,0.279c-0.266,0.188-0.463,0.518-0.591,0.991l-1.163-0.151
		c0.105-0.474,0.28-0.856,0.522-1.148c0.242-0.291,0.593-0.516,1.05-0.673c0.459-0.157,0.989-0.235,1.593-0.235
		c0.599,0,1.086,0.066,1.46,0.201c0.375,0.134,0.65,0.303,0.826,0.506s0.3,0.461,0.37,0.771c0.04,0.192,0.06,0.541,0.06,1.044v1.511
		c0,1.053,0.025,1.719,0.076,1.998c0.051,0.278,0.15,0.546,0.301,0.802h-1.242C94.543,93.072,94.463,92.798,94.428,92.483z
		 M94.328,89.953c-0.432,0.168-1.078,0.311-1.941,0.428c-0.49,0.068-0.836,0.144-1.038,0.227c-0.202,0.084-0.358,0.207-0.469,0.369
		c-0.11,0.161-0.165,0.34-0.165,0.537c0,0.303,0.119,0.555,0.359,0.756s0.592,0.302,1.055,0.302c0.457,0,0.865-0.095,1.222-0.286
		s0.619-0.452,0.786-0.783c0.128-0.256,0.191-0.634,0.191-1.133V89.953z"/>
	<path fill="#0B3357" d="M101.928,93.308v-0.843c-0.445,0.662-1.1,0.994-1.963,0.994c-0.56,0-1.074-0.147-1.543-0.441
		c-0.469-0.293-0.832-0.703-1.09-1.229s-0.387-1.132-0.387-1.815c0-0.667,0.117-1.271,0.35-1.815
		c0.234-0.544,0.584-0.96,1.051-1.249s0.989-0.434,1.566-0.434c0.423,0,0.799,0.084,1.13,0.254c0.33,0.17,0.599,0.392,0.806,0.664
		v-3.31h1.184v9.225H101.928z M98.168,89.973c0,0.855,0.189,1.496,0.568,1.919c0.379,0.424,0.826,0.636,1.341,0.636
		c0.52,0,0.962-0.202,1.325-0.607c0.363-0.404,0.545-1.022,0.545-1.854c0-0.914-0.186-1.585-0.555-2.014
		c-0.371-0.428-0.826-0.641-1.368-0.641c-0.528,0-0.97,0.205-1.325,0.616C98.346,88.439,98.168,89.088,98.168,89.973z"/>
	<path fill="#0B3357" d="M109.703,91.156l1.229,0.145c-0.194,0.684-0.553,1.214-1.077,1.592c-0.523,0.377-1.193,0.566-2.008,0.566
		c-1.027,0-1.841-0.301-2.441-0.903c-0.602-0.603-0.902-1.446-0.902-2.532c0-1.125,0.304-1.998,0.912-2.618
		c0.607-0.62,1.396-0.931,2.365-0.931c0.938,0,1.705,0.304,2.299,0.912c0.595,0.607,0.893,1.464,0.893,2.566
		c0,0.068-0.002,0.168-0.007,0.303h-5.233c0.045,0.734,0.262,1.296,0.654,1.686c0.393,0.391,0.881,0.586,1.467,0.586
		c0.436,0,0.809-0.109,1.117-0.327C109.278,91.982,109.523,91.634,109.703,91.156z M105.799,89.324h3.918
		c-0.053-0.562-0.203-0.983-0.449-1.265c-0.379-0.437-0.87-0.654-1.473-0.654c-0.547,0-1.006,0.175-1.379,0.522
		C106.045,88.275,105.838,88.741,105.799,89.324z"/>
	<path fill="#0B3357" d="M112.426,93.308v-6.683h1.063v0.938c0.22-0.327,0.513-0.59,0.879-0.789s0.782-0.299,1.249-0.299
		c0.52,0,0.945,0.102,1.278,0.308s0.567,0.493,0.704,0.862c0.555-0.78,1.277-1.17,2.166-1.17c0.696,0,1.231,0.184,1.605,0.55
		c0.375,0.367,0.562,0.933,0.562,1.696v4.587h-1.184v-4.21c0-0.453-0.038-0.779-0.115-0.979c-0.076-0.199-0.217-0.359-0.42-0.48
		c-0.202-0.122-0.439-0.184-0.713-0.184c-0.493,0-0.902,0.156-1.229,0.469s-0.489,0.813-0.489,1.502v3.882h-1.189v-4.342
		c0-0.503-0.097-0.881-0.29-1.133c-0.194-0.251-0.512-0.378-0.952-0.378c-0.335,0-0.644,0.084-0.929,0.252
		c-0.283,0.168-0.49,0.414-0.617,0.736c-0.128,0.323-0.191,0.789-0.191,1.396v3.468H112.426z"/>
	<path fill="#0B3357" d="M123.645,95.881l-0.132-1.062c0.26,0.066,0.487,0.1,0.681,0.1c0.264,0,0.476-0.041,0.635-0.125
		c0.158-0.084,0.287-0.201,0.389-0.353c0.075-0.113,0.196-0.395,0.363-0.843c0.022-0.063,0.058-0.156,0.106-0.277l-2.663-6.695
		h1.282l1.46,3.869c0.189,0.492,0.359,1.008,0.509,1.549c0.137-0.521,0.3-1.027,0.489-1.523l1.5-3.895h1.189l-2.67,6.796
		c-0.287,0.733-0.509,1.239-0.668,1.517c-0.211,0.373-0.453,0.646-0.727,0.821c-0.273,0.174-0.599,0.261-0.978,0.261
		C124.182,96.02,123.927,95.974,123.645,95.881z"/>
</g>
<g>
	<path fill="#0B3357" d="M3.041,75.535c0-1.065,0.321-1.941,0.967-2.633c0.644-0.688,1.513-1.032,2.608-1.032
		c1.252,0,2.199,0.403,2.839,1.213c0.513,0.655,0.772,1.459,0.772,2.411c0,1.074-0.32,1.955-0.958,2.641
		c-0.638,0.684-1.521,1.025-2.648,1.025c-1.005,0-1.817-0.282-2.437-0.854C3.422,77.6,3.041,76.677,3.041,75.535z M5.444,75.527
		c0,0.621,0.112,1.082,0.338,1.379c0.227,0.299,0.509,0.447,0.851,0.447c0.346,0,0.629-0.147,0.851-0.44
		c0.222-0.294,0.333-0.765,0.333-1.412c0-0.604-0.113-1.054-0.336-1.351s-0.5-0.443-0.83-0.443c-0.35,0-0.639,0.148-0.867,0.45
		C5.558,74.459,5.444,74.914,5.444,75.527z"/>
	<path fill="#0B3357" d="M10.72,72.027h2.244v1.143c0.216-0.498,0.438-0.835,0.668-1.021c0.229-0.188,0.513-0.279,0.852-0.279
		c0.353,0,0.74,0.122,1.159,0.367l-0.741,1.906c-0.284-0.133-0.507-0.201-0.673-0.201c-0.314,0-0.556,0.146-0.73,0.438
		c-0.249,0.405-0.373,1.168-0.373,2.284v2.339H10.72V72.027z"/>
	<path fill="#0B3357" d="M15.571,72.027h2.238v1.019c0.321-0.426,0.647-0.728,0.976-0.905c0.329-0.182,0.726-0.27,1.189-0.27
		c0.5,0,0.895,0.099,1.187,0.295c0.291,0.197,0.529,0.491,0.713,0.882c0.378-0.457,0.721-0.767,1.03-0.932
		c0.309-0.163,0.692-0.245,1.147-0.245c0.671,0,1.194,0.223,1.569,0.666c0.376,0.443,0.566,1.143,0.566,2.087v4.38h-2.404v-3.973
		c0-0.316-0.055-0.553-0.165-0.703c-0.16-0.241-0.359-0.361-0.598-0.361c-0.282,0-0.508,0.114-0.681,0.34
		c-0.172,0.229-0.258,0.596-0.258,1.098v3.601h-2.402V75.16c0-0.307-0.015-0.514-0.047-0.623c-0.051-0.176-0.141-0.317-0.265-0.424
		c-0.127-0.107-0.274-0.161-0.444-0.161c-0.275,0-0.502,0.118-0.679,0.348c-0.177,0.232-0.266,0.615-0.266,1.146v3.56h-2.402v-6.978
		H15.571L15.571,72.027z"/>
	<path fill="#0B3357" d="M27.016,69.373h2.398v1.818h-2.398V69.373z M27.016,72.027h2.398v6.977h-2.398V72.027z"/>
	<path fill="#0B3357" d="M29.829,77.064l2.38-0.25c0.098,0.315,0.236,0.539,0.411,0.676c0.177,0.136,0.413,0.203,0.706,0.203
		c0.322,0,0.571-0.077,0.748-0.229c0.138-0.115,0.207-0.257,0.207-0.428c0-0.191-0.09-0.342-0.271-0.444
		c-0.129-0.075-0.473-0.168-1.03-0.274c-0.833-0.162-1.41-0.312-1.734-0.45c-0.323-0.14-0.597-0.37-0.818-0.699
		c-0.222-0.328-0.333-0.702-0.333-1.122c0-0.459,0.119-0.854,0.36-1.188c0.239-0.332,0.568-0.582,0.989-0.744
		c0.42-0.163,0.985-0.246,1.691-0.246c0.746,0,1.296,0.062,1.651,0.189c0.355,0.129,0.651,0.322,0.89,0.592
		c0.237,0.267,0.436,0.629,0.591,1.084l-2.272,0.25c-0.059-0.225-0.158-0.389-0.295-0.494c-0.188-0.141-0.416-0.209-0.683-0.209
		c-0.271,0-0.467,0.054-0.592,0.162c-0.123,0.104-0.185,0.236-0.185,0.387c0,0.172,0.078,0.302,0.236,0.387
		c0.157,0.088,0.499,0.167,1.024,0.237c0.797,0.101,1.39,0.241,1.778,0.421c0.389,0.18,0.687,0.438,0.893,0.768
		c0.205,0.332,0.31,0.698,0.31,1.097c0,0.403-0.11,0.794-0.328,1.175c-0.217,0.382-0.56,0.684-1.03,0.908
		c-0.468,0.225-1.108,0.337-1.916,0.337c-1.143,0-1.958-0.181-2.442-0.545C30.277,78.251,29.966,77.734,29.829,77.064z"/>
	<path fill="#0B3357" d="M39.73,70.062v1.961h1.32v1.961h-1.32v2.472c0,0.297,0.027,0.494,0.077,0.589
		c0.078,0.146,0.215,0.225,0.412,0.225c0.175,0,0.424-0.058,0.742-0.172l0.177,1.846c-0.594,0.146-1.147,0.218-1.661,0.218
		c-0.596,0-1.036-0.088-1.32-0.259c-0.282-0.17-0.491-0.43-0.628-0.777c-0.134-0.35-0.203-0.909-0.203-1.688v-2.455h-0.884v-1.957
		h0.884v-1.959L39.73,70.062z"/>
	<path fill="#0B3357" d="M41.188,75.535c0-1.065,0.322-1.941,0.966-2.633c0.643-0.688,1.513-1.032,2.608-1.032
		c1.253,0,2.199,0.403,2.838,1.213c0.514,0.655,0.771,1.459,0.771,2.411c0,1.074-0.318,1.955-0.956,2.641
		c-0.639,0.684-1.521,1.025-2.648,1.025c-1.005,0-1.818-0.282-2.438-0.854C41.569,77.6,41.188,76.677,41.188,75.535z M43.592,75.527
		c0,0.621,0.112,1.082,0.338,1.379c0.227,0.299,0.51,0.447,0.851,0.447c0.345,0,0.629-0.147,0.851-0.44
		c0.222-0.294,0.333-0.765,0.333-1.412c0-0.604-0.113-1.054-0.336-1.351c-0.225-0.297-0.501-0.443-0.83-0.443
		c-0.351,0-0.639,0.148-0.867,0.45C43.706,74.459,43.592,74.914,43.592,75.527z"/>
	<path fill="#0B3357" d="M48.855,72.027h2.232v1.137c0.334-0.465,0.673-0.795,1.015-0.994c0.341-0.2,0.758-0.3,1.247-0.3
		c0.665,0,1.185,0.218,1.56,0.659c0.374,0.438,0.562,1.121,0.562,2.039v4.436h-2.409v-3.836c0-0.439-0.072-0.749-0.217-0.932
		c-0.146-0.182-0.35-0.271-0.613-0.271c-0.291,0-0.527,0.123-0.707,0.368c-0.179,0.246-0.271,0.686-0.271,1.318v3.351h-2.398
		L48.855,72.027L48.855,72.027z"/>
	<path fill="#0B3357" d="M59.73,69.373h2.421v3.337c0.239-0.278,0.513-0.493,0.816-0.631c0.304-0.142,0.641-0.209,1.011-0.209
		c0.761,0,1.39,0.306,1.889,0.914c0.499,0.61,0.749,1.489,0.749,2.633c0,0.763-0.115,1.433-0.343,2.015
		c-0.229,0.577-0.543,1.014-0.944,1.301c-0.403,0.285-0.85,0.432-1.342,0.432c-0.419,0-0.805-0.102-1.153-0.303
		c-0.265-0.158-0.551-0.454-0.86-0.889v1.031H59.73V69.373z M62.133,75.494c0,0.601,0.101,1.033,0.304,1.304
		c0.202,0.271,0.459,0.404,0.768,0.404c0.286,0,0.526-0.134,0.722-0.396c0.193-0.266,0.292-0.712,0.292-1.339
		c0-0.551-0.095-0.956-0.286-1.214c-0.19-0.259-0.421-0.388-0.692-0.388c-0.326,0-0.593,0.135-0.798,0.403
		C62.236,74.539,62.133,74.948,62.133,75.494z"/>
	<path fill="#0B3357" d="M66.805,75.535c0-1.065,0.321-1.941,0.967-2.633c0.642-0.688,1.514-1.032,2.607-1.032
		c1.253,0,2.199,0.403,2.84,1.213c0.514,0.655,0.771,1.459,0.771,2.411c0,1.074-0.319,1.955-0.956,2.641
		c-0.64,0.684-1.521,1.025-2.649,1.025c-1.003,0-1.814-0.282-2.438-0.854C67.184,77.6,66.805,76.677,66.805,75.535z M69.208,75.527
		c0,0.621,0.112,1.082,0.339,1.379c0.227,0.299,0.508,0.447,0.852,0.447c0.346,0,0.629-0.147,0.851-0.44
		c0.224-0.294,0.333-0.765,0.333-1.412c0-0.604-0.111-1.054-0.336-1.351s-0.499-0.443-0.829-0.443c-0.351,0-0.64,0.148-0.867,0.45
		C69.32,74.459,69.208,74.914,69.208,75.527z"/>
	<path fill="#0B3357" d="M74.529,69.373h2.402v9.628h-2.402V69.373z"/>
	<path fill="#0B3357" d="M77.82,69.373h2.397v1.818H77.82V69.373z M77.82,72.027h2.397v6.977H77.82V72.027z"/>
	<path fill="#0B3357" d="M81.059,72.027h2.232v1.137c0.333-0.465,0.671-0.795,1.012-0.994c0.344-0.2,0.76-0.3,1.25-0.3
		c0.663,0,1.182,0.218,1.559,0.659c0.375,0.438,0.562,1.121,0.562,2.039v4.436h-2.407v-3.836c0-0.439-0.074-0.749-0.219-0.932
		c-0.146-0.182-0.352-0.271-0.611-0.271c-0.291,0-0.526,0.123-0.709,0.368c-0.178,0.246-0.27,0.686-0.27,1.318v3.351h-2.396v-6.976
		H81.059z"/>
	<path fill="#0B3357" d="M92.798,72.027h2.244v6.587l0.006,0.311c0,0.438-0.084,0.854-0.251,1.25
		c-0.167,0.397-0.388,0.72-0.665,0.964c-0.274,0.246-0.629,0.424-1.055,0.532c-0.425,0.108-0.913,0.165-1.464,0.165
		c-1.256,0-2.117-0.21-2.586-0.63c-0.471-0.422-0.704-0.983-0.704-1.688c0-0.086,0.005-0.205,0.011-0.354l2.327,0.296
		c0.06,0.239,0.147,0.406,0.271,0.498c0.176,0.135,0.397,0.204,0.666,0.204c0.346,0,0.604-0.103,0.772-0.31
		c0.172-0.207,0.257-0.565,0.257-1.076v-1.062c-0.236,0.312-0.473,0.536-0.708,0.677c-0.368,0.221-0.769,0.33-1.194,0.33
		c-0.838,0-1.514-0.408-2.026-1.224c-0.365-0.578-0.548-1.342-0.548-2.292c0-1.088,0.236-1.914,0.705-2.484
		c0.472-0.568,1.088-0.854,1.85-0.854c0.488,0,0.889,0.091,1.207,0.273c0.314,0.185,0.611,0.491,0.886,0.916V72.027L92.798,72.027z
		 M90.544,75.409c0,0.503,0.097,0.877,0.289,1.121c0.19,0.243,0.444,0.364,0.76,0.364c0.298,0,0.548-0.125,0.75-0.379
		c0.202-0.25,0.304-0.631,0.304-1.141c0-0.506-0.104-0.896-0.316-1.164c-0.213-0.27-0.473-0.404-0.779-0.404
		c-0.306,0-0.551,0.125-0.732,0.371C90.634,74.427,90.544,74.836,90.544,75.409z"/>
	<path fill="#0B3357" d="M95.85,69.373h2.422v3.337c0.238-0.278,0.514-0.493,0.815-0.631c0.304-0.142,0.642-0.209,1.011-0.209
		c0.762,0,1.393,0.306,1.891,0.914c0.498,0.61,0.748,1.489,0.748,2.633c0,0.763-0.111,1.433-0.34,2.015
		c-0.229,0.577-0.545,1.014-0.945,1.301c-0.4,0.285-0.85,0.432-1.34,0.432c-0.418,0-0.805-0.102-1.156-0.303
		c-0.264-0.158-0.548-0.454-0.857-0.889v1.031h-2.244v-9.631H95.85z M98.252,75.494c0,0.601,0.102,1.033,0.305,1.304
		s0.459,0.404,0.769,0.404c0.288,0,0.528-0.134,0.722-0.396c0.194-0.266,0.293-0.712,0.293-1.339c0-0.551-0.096-0.956-0.285-1.214
		c-0.191-0.259-0.422-0.388-0.693-0.388c-0.324,0-0.592,0.135-0.797,0.403C98.355,74.539,98.252,74.948,98.252,75.494z"/>
	<path fill="#0B3357" d="M103.282,72.027h2.245v1.143c0.215-0.498,0.438-0.835,0.67-1.021c0.228-0.188,0.511-0.279,0.85-0.279
		c0.354,0,0.74,0.122,1.162,0.367l-0.743,1.906c-0.28-0.133-0.507-0.201-0.671-0.201c-0.314,0-0.559,0.146-0.732,0.438
		c-0.246,0.405-0.369,1.168-0.369,2.284v2.339h-2.41L103.282,72.027L103.282,72.027z"/>
	<path fill="#0B3357" d="M107.535,75.535c0-1.065,0.322-1.941,0.967-2.633c0.645-0.688,1.514-1.032,2.609-1.032
		c1.25,0,2.195,0.403,2.838,1.213c0.514,0.655,0.771,1.459,0.771,2.411c0,1.074-0.322,1.955-0.957,2.641
		c-0.641,0.684-1.521,1.025-2.65,1.025c-1.004,0-1.817-0.282-2.438-0.854C107.915,77.6,107.535,76.677,107.535,75.535z
		 M109.938,75.527c0,0.621,0.112,1.082,0.34,1.379c0.227,0.299,0.51,0.447,0.852,0.447c0.346,0,0.628-0.147,0.85-0.44
		c0.224-0.294,0.334-0.765,0.334-1.412c0-0.604-0.112-1.054-0.334-1.351c-0.228-0.297-0.5-0.443-0.832-0.443
		c-0.35,0-0.639,0.148-0.865,0.45C110.053,74.459,109.938,74.914,109.938,75.527z"/>
	<path fill="#0B3357" d="M115.203,69.373h2.451v4.971l1.787-2.316h2.951l-2.242,2.442l2.371,4.534h-2.701l-1.264-2.796l-0.904,0.979
		v1.815h-2.449V69.373L115.203,69.373z"/>
	<path fill="#0B3357" d="M129.262,76.18h-4.809c0.042,0.43,0.148,0.746,0.312,0.959c0.232,0.303,0.534,0.453,0.907,0.453
		c0.235,0,0.459-0.064,0.673-0.199c0.129-0.082,0.268-0.229,0.418-0.438l2.361,0.244c-0.361,0.7-0.797,1.202-1.309,1.508
		c-0.51,0.305-1.242,0.455-2.196,0.455c-0.828,0-1.479-0.13-1.956-0.392c-0.475-0.262-0.867-0.672-1.18-1.24
		c-0.313-0.566-0.469-1.233-0.469-2c0-1.09,0.312-1.975,0.939-2.648c0.624-0.674,1.49-1.012,2.593-1.012
		c0.896,0,1.604,0.148,2.123,0.453c0.519,0.302,0.91,0.74,1.183,1.313c0.273,0.574,0.405,1.32,0.405,2.24v0.304H129.262z
		 M126.822,74.896c-0.047-0.517-0.172-0.888-0.377-1.108c-0.2-0.226-0.469-0.336-0.795-0.336c-0.381,0-0.686,0.169-0.912,0.506
		c-0.146,0.21-0.238,0.522-0.277,0.938H126.822z"/>
</g>
<text transform="matrix(1.0798 -0.2622 0.236 0.9718 46.5562 49.3477)" fill="#F7A30C" font-family="'MinionPro-Regular'" font-size="6.7275">LUCERE ~ AUDE</text>
</svg>
