<?xml version="1.0" encoding="utf-8"?>
<!-- Generator: Adobe Illustrator 16.0.0, SVG Export Plug-In . SVG Version: 6.00 Build 0)  -->
<!DOCTYPE svg PUBLIC "-//W3C//DTD SVG 1.0//EN" "http://www.w3.org/TR/2001/REC-SVG-20010904/DTD/svg10.dtd">
<svg version="1.0" id="Layer_1" xmlns="http://www.w3.org/2000/svg" xmlns:xlink="http://www.w3.org/1999/xlink" x="0px" y="0px"
	 width="93.129px" height="80px" viewBox="0 0 93.129 80" enable-background="new 0 0 93.129 80" xml:space="preserve">
<linearGradient id="SVGID_1_" gradientUnits="userSpaceOnUse" x1="88.6719" y1="-169.5044" x2="88.6719" y2="-89.7168" gradientTransform="matrix(1 0 0 -1 -47.5 -90)">
	<stop  offset="0" style="stop-color:#F4EDC1"/>
	<stop  offset="1" style="stop-color:#F7A30C"/>
</linearGradient>
<circle fill="url(#SVGID_1_)" cx="41.171" cy="39.611" r="39.894"/>
<g id="Shape_1">
	<g>
		<polygon fill="#209DD3" points="2.746,50.598 93.059,50.598 93.059,27.836 		"/>
	</g>
</g>
<g id="Shape_2">
	<g>
		<path fill="#0B3357" d="M93.063,16.268c0,0-34.79,12.211-43.143,13.771c-14.685,3.212-22.119-7.067-32.858-2.937
			C7.793,30.039,7.885,45,3.296,48.945c0.092,0,3.121-0.825,3.121-0.918c2.295-14.5,13.492-25.239,25.148-6.607
			c5.874-1.377,61.494-15.052,61.494-15.052L93.063,16.268z"/>
	</g>
</g>
<g>
	<path fill="#FFFFFF" d="M77.639,34.078v8.873c0.459,2.998,5.998,6.363,5.998,6.363s5.721-3.61,6.057-6.304v-8.933
		C87.307,33.404,79.664,33.584,77.639,34.078z"/>
</g>
<polygon fill="#E62003" points="82.32,33.894 82.32,39.217 78.129,39.217 78.129,42.001 82.32,42.001 82.32,48.43 84.924,48.43 
	84.924,41.909 89.266,41.909 89.266,39.217 84.921,39.217 84.921,33.894 "/>
<g>
	<path fill="#0B3357" d="M84.091,34.638c1.916,0,3.554,0.092,4.603,0.253v8.048c-0.235,1.418-2.935,3.748-5.065,5.186
		c-1.961-1.291-4.668-3.573-4.987-5.259v-7.95C79.893,34.749,81.988,34.638,84.091,34.638 M84.091,33.638
		c-2.647,0-5.362,0.175-6.452,0.44v8.873c0.459,2.998,5.998,6.363,5.998,6.363s5.721-3.61,6.057-6.304v-8.933
		C88.591,33.767,86.365,33.638,84.091,33.638L84.091,33.638z"/>
</g>
<text transform="matrix(1.05 0 0 1 53.9668 70.4238)" fill="#0B3357" font-family="'ArialMT'" font-size="9.1782">academy</text>
<g>
	<path fill="#0B3357" d="M2.956,57.766c0-0.759,0.229-1.383,0.688-1.875c0.459-0.49,1.078-0.735,1.858-0.735
		c0.892,0,1.566,0.288,2.022,0.864c0.366,0.467,0.55,1.039,0.55,1.717c0,0.766-0.228,1.393-0.682,1.881
		c-0.455,0.486-1.083,0.73-1.886,0.73c-0.716,0-1.294-0.201-1.736-0.607C3.228,59.236,2.956,58.579,2.956,57.766z M4.667,57.761
		c0,0.442,0.08,0.771,0.241,0.981c0.161,0.213,0.362,0.318,0.606,0.318c0.246,0,0.448-0.104,0.606-0.313
		c0.158-0.209,0.237-0.544,0.237-1.006c0-0.431-0.08-0.75-0.239-0.962c-0.159-0.211-0.356-0.315-0.591-0.315
		c-0.249,0-0.455,0.106-0.617,0.32C4.749,56.999,4.667,57.323,4.667,57.761z"/>
	<path fill="#0B3357" d="M8.425,55.268h1.598v0.813c0.154-0.354,0.312-0.595,0.476-0.728c0.164-0.134,0.366-0.199,0.607-0.199
		c0.251,0,0.527,0.087,0.826,0.262l-0.528,1.357c-0.202-0.094-0.361-0.143-0.479-0.143c-0.224,0-0.396,0.104-0.52,0.311
		c-0.177,0.289-0.265,0.832-0.265,1.627v1.666H8.425V55.268z"/>
	<path fill="#0B3357" d="M11.88,55.268h1.594v0.726c0.229-0.304,0.461-0.519,0.695-0.646c0.234-0.129,0.517-0.191,0.847-0.191
		c0.356,0,0.637,0.07,0.845,0.21c0.207,0.141,0.377,0.35,0.508,0.628c0.269-0.325,0.513-0.546,0.733-0.663
		c0.22-0.116,0.493-0.175,0.817-0.175c0.478,0,0.85,0.158,1.118,0.475c0.268,0.316,0.403,0.812,0.403,1.486v3.119h-1.712v-2.829
		c0-0.226-0.039-0.394-0.117-0.501c-0.114-0.172-0.256-0.258-0.426-0.258c-0.201,0-0.362,0.082-0.485,0.242
		c-0.123,0.162-0.184,0.424-0.184,0.781v2.564h-1.711v-2.737c0-0.218-0.011-0.366-0.034-0.444c-0.036-0.125-0.1-0.226-0.189-0.302
		c-0.09-0.076-0.195-0.114-0.316-0.114c-0.196,0-0.358,0.084-0.484,0.247c-0.126,0.166-0.189,0.438-0.189,0.815v2.535h-1.711v-4.969
		H11.88z"/>
	<path fill="#0B3357" d="M20.031,53.377h1.708v1.295h-1.708V53.377z M20.031,55.268h1.708v4.969h-1.708V55.268z"/>
	<path fill="#0B3357" d="M22.034,58.855l1.695-0.179c0.07,0.226,0.168,0.384,0.293,0.481c0.126,0.097,0.294,0.145,0.503,0.145
		c0.229,0,0.407-0.055,0.533-0.162c0.098-0.082,0.147-0.183,0.147-0.305c0-0.137-0.064-0.242-0.193-0.316
		c-0.092-0.054-0.337-0.119-0.734-0.196c-0.593-0.115-1.004-0.222-1.235-0.32c-0.23-0.099-0.425-0.264-0.583-0.498
		c-0.158-0.233-0.237-0.5-0.237-0.799c0-0.327,0.085-0.608,0.256-0.847c0.17-0.236,0.405-0.414,0.705-0.53
		c0.299-0.116,0.701-0.175,1.204-0.175c0.531,0,0.923,0.045,1.176,0.135c0.253,0.092,0.464,0.23,0.634,0.422
		c0.169,0.189,0.31,0.447,0.421,0.771L25,56.661c-0.042-0.16-0.112-0.277-0.21-0.353c-0.134-0.1-0.296-0.148-0.486-0.148
		c-0.193,0-0.333,0.038-0.422,0.115c-0.088,0.074-0.132,0.168-0.132,0.275c0,0.122,0.056,0.215,0.168,0.275
		c0.112,0.062,0.355,0.119,0.729,0.169c0.568,0.071,0.99,0.172,1.267,0.3c0.277,0.127,0.489,0.311,0.636,0.546
		c0.146,0.237,0.22,0.498,0.22,0.781c0,0.287-0.078,0.565-0.233,0.837c-0.155,0.271-0.399,0.486-0.734,0.646
		c-0.333,0.16-0.789,0.24-1.365,0.24c-0.814,0-1.394-0.129-1.739-0.389C22.354,59.7,22.132,59.332,22.034,58.855z"/>
	<path fill="#0B3357" d="M29.086,53.868v1.397h0.94v1.396h-0.94v1.761c0,0.211,0.019,0.352,0.055,0.419
		C29.196,58.945,29.294,59,29.434,59c0.125,0,0.302-0.04,0.528-0.121l0.126,1.314c-0.423,0.103-0.817,0.154-1.183,0.154
		c-0.425,0-0.738-0.062-0.94-0.184c-0.201-0.121-0.35-0.307-0.447-0.555c-0.096-0.248-0.145-0.647-0.145-1.201V56.66h-0.629v-1.395
		h0.629V53.87L29.086,53.868z"/>
	<path fill="#0B3357" d="M30.125,57.766c0-0.759,0.229-1.383,0.688-1.875c0.458-0.49,1.078-0.735,1.858-0.735
		c0.892,0,1.566,0.288,2.021,0.864c0.366,0.467,0.549,1.039,0.549,1.717c0,0.766-0.227,1.393-0.681,1.881
		c-0.455,0.486-1.083,0.73-1.886,0.73c-0.716,0-1.295-0.201-1.736-0.607C30.396,59.236,30.125,58.579,30.125,57.766z M31.836,57.761
		c0,0.442,0.08,0.771,0.241,0.981c0.161,0.213,0.363,0.318,0.606,0.318c0.246,0,0.448-0.104,0.606-0.313
		c0.158-0.209,0.237-0.544,0.237-1.006c0-0.431-0.08-0.75-0.239-0.962c-0.16-0.211-0.357-0.315-0.591-0.315
		c-0.25,0-0.455,0.106-0.617,0.32C31.917,56.999,31.836,57.323,31.836,57.761z"/>
	<path fill="#0B3357" d="M35.585,55.268h1.59v0.81c0.238-0.331,0.479-0.566,0.722-0.708c0.243-0.143,0.54-0.214,0.889-0.214
		c0.473,0,0.843,0.155,1.11,0.47c0.267,0.312,0.4,0.799,0.4,1.453v3.158h-1.715v-2.732c0-0.312-0.052-0.533-0.155-0.663
		c-0.104-0.129-0.249-0.192-0.437-0.192c-0.207,0-0.375,0.088-0.503,0.263s-0.193,0.487-0.193,0.938v2.387h-1.708V55.268z"/>
	<path fill="#0B3357" d="M43.33,53.377h1.724v2.377c0.171-0.199,0.365-0.352,0.582-0.449c0.216-0.101,0.456-0.149,0.719-0.149
		c0.542,0,0.99,0.218,1.346,0.651c0.355,0.436,0.533,1.061,0.533,1.875c0,0.543-0.082,1.021-0.244,1.435
		c-0.162,0.411-0.387,0.722-0.673,0.927c-0.287,0.203-0.605,0.307-0.955,0.307c-0.299,0-0.573-0.072-0.822-0.216
		c-0.188-0.112-0.392-0.323-0.612-0.632v0.734H43.33V53.377z M45.042,57.736c0,0.428,0.072,0.736,0.216,0.929
		s0.327,0.288,0.547,0.288c0.204,0,0.375-0.096,0.514-0.282c0.138-0.188,0.208-0.507,0.208-0.953c0-0.393-0.068-0.681-0.204-0.864
		c-0.136-0.185-0.3-0.276-0.493-0.276c-0.232,0-0.422,0.096-0.568,0.288C45.115,57.057,45.042,57.348,45.042,57.736z"/>
	<path fill="#0B3357" d="M48.368,57.766c0-0.759,0.229-1.383,0.688-1.875c0.457-0.49,1.078-0.735,1.857-0.735
		c0.893,0,1.566,0.288,2.022,0.864c0.366,0.467,0.549,1.039,0.549,1.717c0,0.766-0.228,1.393-0.681,1.881
		c-0.455,0.486-1.084,0.73-1.887,0.73c-0.715,0-1.293-0.201-1.736-0.607C48.639,59.236,48.368,58.579,48.368,57.766z M50.08,57.761
		c0,0.442,0.081,0.771,0.241,0.981c0.161,0.213,0.362,0.318,0.606,0.318c0.246,0,0.447-0.104,0.605-0.313s0.237-0.544,0.237-1.006
		c0-0.431-0.08-0.75-0.239-0.962c-0.159-0.211-0.355-0.315-0.591-0.315c-0.249,0-0.455,0.106-0.617,0.32
		C50.161,56.999,50.08,57.323,50.08,57.761z"/>
	<path fill="#0B3357" d="M53.871,53.377h1.711v6.857h-1.711V53.377z"/>
	<path fill="#0B3357" d="M56.215,53.377h1.707v1.295h-1.707V53.377z M56.215,55.268h1.707v4.969h-1.707V55.268z"/>
	<path fill="#0B3357" d="M58.521,55.268h1.59v0.81c0.237-0.331,0.478-0.566,0.721-0.708c0.244-0.143,0.54-0.214,0.89-0.214
		c0.473,0,0.842,0.155,1.109,0.47c0.268,0.312,0.4,0.799,0.4,1.453v3.158h-1.715v-2.732c0-0.312-0.053-0.533-0.155-0.663
		c-0.104-0.129-0.25-0.192-0.437-0.192c-0.207,0-0.375,0.088-0.504,0.263c-0.127,0.175-0.192,0.487-0.192,0.938v2.387h-1.707V55.268
		z"/>
	<path fill="#0B3357" d="M66.881,55.268h1.599v4.691l0.004,0.221c0,0.312-0.06,0.608-0.179,0.891
		c-0.119,0.283-0.276,0.512-0.474,0.687c-0.196,0.175-0.448,0.302-0.751,0.379c-0.303,0.078-0.65,0.117-1.042,0.117
		c-0.896,0-1.509-0.149-1.843-0.448c-0.334-0.301-0.501-0.701-0.501-1.203c0-0.062,0.003-0.146,0.008-0.252l1.657,0.211
		c0.042,0.17,0.105,0.289,0.193,0.354c0.125,0.096,0.283,0.146,0.474,0.146c0.246,0,0.43-0.072,0.551-0.221
		c0.122-0.146,0.183-0.402,0.183-0.767v-0.755c-0.168,0.222-0.336,0.382-0.504,0.481c-0.263,0.157-0.547,0.234-0.852,0.234
		c-0.596,0-1.077-0.29-1.443-0.87c-0.26-0.412-0.39-0.956-0.39-1.633c0-0.774,0.168-1.363,0.503-1.77
		c0.335-0.404,0.773-0.607,1.316-0.607c0.348,0,0.633,0.064,0.859,0.195c0.225,0.131,0.436,0.35,0.631,0.651V55.268L66.881,55.268z
		 M65.275,57.676c0,0.358,0.068,0.625,0.206,0.799c0.137,0.174,0.317,0.26,0.541,0.26c0.212,0,0.391-0.09,0.534-0.27
		c0.145-0.179,0.217-0.449,0.217-0.812c0-0.36-0.075-0.639-0.227-0.829c-0.151-0.191-0.336-0.288-0.555-0.288
		c-0.218,0-0.393,0.089-0.521,0.265C65.34,56.977,65.275,57.268,65.275,57.676z"/>
	<path fill="#0B3357" d="M69.055,53.377h1.725v2.377c0.17-0.199,0.365-0.352,0.581-0.449c0.216-0.101,0.456-0.149,0.72-0.149
		c0.542,0,0.991,0.218,1.346,0.651c0.355,0.435,0.533,1.061,0.533,1.875c0,0.543-0.08,1.021-0.242,1.435
		c-0.164,0.411-0.388,0.722-0.674,0.927c-0.285,0.203-0.604,0.307-0.953,0.307c-0.299,0-0.574-0.072-0.824-0.216
		c-0.188-0.112-0.391-0.323-0.611-0.632v0.734h-1.598v-6.859H69.055z M70.766,57.736c0,0.428,0.072,0.736,0.217,0.929
		s0.326,0.288,0.547,0.288c0.205,0,0.376-0.096,0.514-0.282c0.139-0.188,0.209-0.507,0.209-0.953c0-0.393-0.068-0.681-0.203-0.864
		c-0.137-0.185-0.301-0.276-0.494-0.276c-0.231,0-0.422,0.096-0.567,0.288C70.84,57.057,70.766,57.348,70.766,57.736z"/>
	<path fill="#0B3357" d="M74.348,55.268h1.6v0.813c0.152-0.354,0.312-0.595,0.477-0.728c0.162-0.134,0.364-0.199,0.605-0.199
		c0.252,0,0.527,0.087,0.827,0.262l-0.529,1.357c-0.2-0.094-0.36-0.143-0.478-0.143c-0.225,0-0.397,0.104-0.521,0.311
		c-0.176,0.289-0.264,0.832-0.264,1.627v1.666h-1.717V55.268z"/>
	<path fill="#0B3357" d="M77.377,57.766c0-0.759,0.229-1.383,0.688-1.875c0.458-0.49,1.077-0.735,1.858-0.735
		c0.891,0,1.564,0.288,2.021,0.864c0.365,0.467,0.549,1.039,0.549,1.717c0,0.766-0.229,1.393-0.682,1.881
		c-0.455,0.486-1.083,0.73-1.887,0.73c-0.715,0-1.295-0.201-1.736-0.607C77.647,59.236,77.377,58.579,77.377,57.766z M79.088,57.761
		c0,0.442,0.08,0.771,0.242,0.981c0.16,0.213,0.362,0.318,0.605,0.318c0.246,0,0.447-0.104,0.605-0.313s0.237-0.544,0.237-1.006
		c0-0.431-0.08-0.75-0.237-0.962c-0.162-0.211-0.357-0.315-0.594-0.315c-0.248,0-0.454,0.106-0.616,0.32
		C79.17,56.999,79.088,57.323,79.088,57.761z"/>
	<path fill="#0B3357" d="M82.838,53.377h1.746v3.54l1.273-1.649h2.102l-1.598,1.739l1.689,3.229h-1.924l-0.9-1.991l-0.645,0.698
		v1.293h-1.744V53.377L82.838,53.377z"/>
	<path fill="#0B3357" d="M92.85,58.225h-3.424c0.03,0.306,0.105,0.531,0.224,0.683c0.165,0.216,0.38,0.323,0.646,0.323
		c0.168,0,0.327-0.047,0.479-0.142c0.091-0.059,0.19-0.163,0.298-0.313l1.682,0.174c-0.258,0.499-0.567,0.857-0.932,1.074
		c-0.363,0.217-0.885,0.324-1.564,0.324c-0.59,0-1.054-0.093-1.394-0.279c-0.338-0.186-0.617-0.479-0.84-0.883
		c-0.224-0.403-0.334-0.879-0.334-1.425c0-0.776,0.224-1.405,0.67-1.886c0.444-0.48,1.062-0.721,1.847-0.721
		c0.639,0,1.143,0.106,1.512,0.322c0.369,0.215,0.648,0.527,0.843,0.937s0.288,0.94,0.288,1.596V58.225L92.85,58.225z
		 M91.113,57.311c-0.033-0.367-0.122-0.631-0.268-0.789c-0.144-0.16-0.334-0.239-0.567-0.239c-0.271,0-0.487,0.12-0.649,0.36
		c-0.104,0.149-0.17,0.373-0.197,0.668H91.113z"/>
</g>
<text transform="matrix(1.0798 -0.2622 0.236 0.9718 33.9482 39.1147)" fill="#F7A30C" font-family="'MinionPro-Regular'" font-size="4.7911">LUCERE ~ AUDE</text>
</svg>
