<?xml version="1.0" encoding="utf-8"?>
<!-- Generator: Adobe Illustrator 16.0.0, SVG Export Plug-In . SVG Version: 6.00 Build 0)  -->
<!DOCTYPE svg PUBLIC "-//W3C//DTD SVG 1.1//EN" "http://www.w3.org/Graphics/SVG/1.1/DTD/svg11.dtd">
<svg version="1.1" id="Layer_1" xmlns="http://www.w3.org/2000/svg" xmlns:xlink="http://www.w3.org/1999/xlink" x="0px" y="0px"
	 width="296.963px" height="39.498px" viewBox="0 0 296.963 39.498" enable-background="new 0 0 296.963 39.498"
	 xml:space="preserve">
<g id="Layer_3">
	
		<linearGradient id="SVGID_1_" gradientUnits="userSpaceOnUse" x1="125.6299" y1="856.9873" x2="125.6299" y2="797.6904" gradientTransform="matrix(1 0 0 1 -95 -801.502)">
		<stop  offset="0" style="stop-color:#F4EDC1"/>
		<stop  offset="1" style="stop-color:#F7A30C"/>
	</linearGradient>
	<circle display="none" fill="url(#SVGID_1_)" cx="30.63" cy="25.837" r="29.649"/>
	
		<linearGradient id="SVGID_2_" gradientUnits="userSpaceOnUse" x1="125.6299" y1="856.9873" x2="125.6299" y2="797.6904" gradientTransform="matrix(1 0 0 1 -95 -801.502)">
		<stop  offset="0" style="stop-color:#F4EDC1"/>
		<stop  offset="1" style="stop-color:#F7A30C"/>
	</linearGradient>
	<circle display="none" fill="url(#SVGID_2_)" cx="30.63" cy="25.837" r="29.649"/>
	<g id="Shape_1">
		<g>
			<polygon fill="#209DD3" points="2.072,34.002 69.191,34.002 69.191,17.086 			"/>
		</g>
	</g>
	<g id="Shape_2">
		<g>
			<path fill="#0B3357" d="M69.055,8.628c0,0-25.715,8.935-31.922,10.095c-10.914,2.386-16.438-5.252-24.419-2.183
				c-6.89,2.183-6.821,13.301-10.232,16.234c0.069,0,2.319-0.614,2.319-0.683c1.705-10.777,10.026-18.757,18.688-4.911
				c4.366-1.022,45.701-11.185,45.701-11.185L69.055,8.628z"/>
		</g>
	</g>
	<g>
		<path fill="#FFFFFF" d="M62.185,32.387c-1.234-0.804-3.676-2.666-3.902-4.149l0.006-6.051c0.919-0.138,2.578-0.231,4.237-0.231
			c1.529,0,2.825,0.079,3.607,0.217v6.192C65.989,29.487,63.747,31.349,62.185,32.387z"/>
	</g>
	<polygon fill="#E62003" points="61.21,21.975 61.21,25.544 58.095,25.544 58.095,27.612 61.21,27.612 61.21,31.937 63.145,31.843 
		63.145,27.545 66.373,27.545 66.373,25.544 63.144,25.544 63.144,21.96 	"/>
	<g>
		<path fill="none" stroke="#0B3357" stroke-width="0.7" stroke-miterlimit="10" d="M62.578,22.001c1.414,0,2.672,0.058,3.556,0.159
			v6.248c-0.188,0.892-2.062,2.569-3.959,3.819c-1.656-1.074-3.628-2.737-3.886-3.884v-6.157
			C59.295,22.083,60.834,22.001,62.578,22.001"/>
	</g>
	
		<text transform="matrix(1.0798 -0.2622 0.236 0.9718 25.2612 25.4707)" fill="#F7A30C" font-family="'MinionPro-Regular'" font-size="3.5609">LUCERE ~ AUDE</text>
</g>
<g id="Layer_2">
	<text transform="matrix(1.05 0 0 1 195.5771 34.5371)" fill="#0B3357" font-family="'ArialMT'" font-size="21.9389">academy</text>
	<g>
		<path fill="#0B3357" d="M74.526,11.49c0-1.812,0.548-3.305,1.644-4.479c1.097-1.174,2.577-1.761,4.442-1.761
			c2.132,0,3.744,0.69,4.833,2.069c0.876,1.111,1.313,2.479,1.313,4.104c0,1.827-0.543,3.324-1.629,4.49
			c-1.086,1.168-2.588,1.75-4.507,1.75c-1.711,0-3.095-0.483-4.151-1.453C75.174,15.01,74.526,13.437,74.526,11.49z M78.617,11.479
			c0,1.059,0.192,1.842,0.577,2.349c0.384,0.507,0.867,0.761,1.449,0.761c0.588,0,1.071-0.251,1.449-0.75
			c0.378-0.499,0.566-1.301,0.566-2.404c0-1.029-0.19-1.795-0.571-2.298c-0.381-0.503-0.852-0.755-1.414-0.755
			c-0.595,0-1.086,0.256-1.474,0.766C78.811,9.658,78.617,10.436,78.617,11.479z"/>
		<path fill="#0B3357" d="M87.6,5.519h3.82v1.946c0.367-0.842,0.747-1.422,1.138-1.739s0.874-0.476,1.449-0.476
			c0.602,0,1.26,0.209,1.976,0.626L94.719,9.12c-0.481-0.224-0.862-0.335-1.143-0.335c-0.535,0-0.95,0.246-1.244,0.738
			c-0.421,0.693-0.631,1.99-0.631,3.892v3.981H87.6V5.519z"/>
		<path fill="#0B3357" d="M95.858,5.519h3.811v1.733c0.549-0.723,1.103-1.238,1.662-1.543c0.559-0.306,1.233-0.458,2.023-0.458
			c0.85,0,1.523,0.168,2.019,0.503s0.9,0.835,1.215,1.499c0.641-0.775,1.225-1.303,1.752-1.583c0.527-0.279,1.178-0.419,1.953-0.419
			c1.141,0,2.032,0.378,2.673,1.135c0.641,0.757,0.961,1.94,0.961,3.551v7.459h-4.091V10.63c0-0.537-0.094-0.936-0.28-1.197
			c-0.273-0.41-0.613-0.615-1.019-0.615c-0.479,0-0.866,0.194-1.159,0.582c-0.293,0.387-0.44,1.01-0.44,1.867v6.129h-4.09v-6.542
			c0-0.522-0.027-0.876-0.081-1.063c-0.087-0.298-0.238-0.539-0.453-0.721c-0.214-0.183-0.466-0.274-0.754-0.274
			c-0.47,0-0.855,0.198-1.157,0.593c-0.302,0.396-0.453,1.044-0.453,1.946v6.062h-4.091L95.858,5.519L95.858,5.519z"/>
		<path fill="#0B3357" d="M115.343,1h4.081v3.098h-4.081V1z M115.343,5.519h4.081v11.877h-4.081V5.519z"/>
		<path fill="#0B3357" d="M120.13,14.097l4.051-0.425c0.167,0.537,0.401,0.921,0.702,1.152c0.301,0.231,0.702,0.347,1.204,0.347
			c0.548,0,0.972-0.13,1.273-0.391c0.234-0.194,0.351-0.438,0.351-0.726c0-0.328-0.154-0.581-0.461-0.759
			c-0.221-0.126-0.806-0.283-1.755-0.469c-1.417-0.275-2.401-0.53-2.953-0.765c-0.551-0.234-1.016-0.631-1.394-1.189
			c-0.378-0.559-0.566-1.195-0.566-1.911c0-0.782,0.204-1.456,0.611-2.023c0.408-0.565,0.969-0.988,1.685-1.268
			c0.715-0.279,1.674-0.419,2.877-0.419c1.271,0,2.208,0.108,2.813,0.324c0.605,0.216,1.109,0.552,1.514,1.006
			c0.404,0.455,0.74,1.07,1.007,1.846l-3.87,0.425c-0.101-0.38-0.268-0.66-0.501-0.839c-0.321-0.239-0.708-0.358-1.163-0.358
			c-0.461,0-0.797,0.092-1.008,0.274c-0.21,0.182-0.316,0.404-0.316,0.665c0,0.29,0.134,0.51,0.401,0.658
			c0.267,0.149,0.849,0.283,1.745,0.402c1.357,0.171,2.366,0.41,3.028,0.715c0.662,0.305,1.168,0.741,1.519,1.307
			c0.351,0.566,0.526,1.188,0.526,1.866c0,0.686-0.186,1.353-0.557,2.001c-0.371,0.647-0.956,1.163-1.755,1.547
			c-0.799,0.383-1.887,0.574-3.264,0.574c-1.945,0-3.331-0.309-4.156-0.928C120.893,16.117,120.364,15.237,120.13,14.097z"/>
		<path fill="#0B3357" d="M136.986,2.175v3.343h2.246v3.333h-2.246v4.208c0,0.506,0.043,0.841,0.13,1.004
			c0.134,0.253,0.368,0.38,0.702,0.38c0.301,0,0.722-0.098,1.263-0.291l0.301,3.143c-1.009,0.246-1.952,0.368-2.828,0.368
			c-1.016,0-1.765-0.145-2.246-0.435s-0.837-0.731-1.068-1.323c-0.231-0.593-0.346-1.552-0.346-2.876V8.851h-1.504V5.519h1.504
			V2.185L136.986,2.175z"/>
		<path fill="#0B3357" d="M139.469,11.49c0-1.812,0.548-3.305,1.644-4.479c1.096-1.174,2.577-1.761,4.442-1.761
			c2.132,0,3.743,0.69,4.833,2.069c0.875,1.111,1.313,2.479,1.313,4.104c0,1.827-0.543,3.324-1.63,4.49
			c-1.086,1.168-2.587,1.75-4.506,1.75c-1.711,0-3.095-0.483-4.151-1.453C140.117,15.01,139.469,13.437,139.469,11.49z
			 M143.56,11.479c0,1.059,0.192,1.842,0.576,2.349c0.384,0.507,0.868,0.761,1.449,0.761c0.588,0,1.071-0.251,1.449-0.75
			s0.566-1.301,0.566-2.404c0-1.029-0.19-1.795-0.571-2.298c-0.381-0.503-0.853-0.755-1.414-0.755c-0.595,0-1.086,0.256-1.474,0.766
			C143.753,9.658,143.56,10.436,143.56,11.479z"/>
		<path fill="#0B3357" d="M152.522,5.519h3.799v1.935c0.568-0.79,1.144-1.355,1.726-1.694c0.581-0.339,1.289-0.509,2.125-0.509
			c1.13,0,2.015,0.375,2.652,1.124c0.639,0.75,0.957,1.907,0.957,3.473v7.549h-4.101v-6.531c0-0.745-0.125-1.273-0.371-1.583
			c-0.248-0.309-0.597-0.464-1.043-0.464c-0.496,0-0.896,0.209-1.205,0.626c-0.308,0.418-0.461,1.167-0.461,2.248v5.704h-4.08
			L152.522,5.519L152.522,5.519z"/>
		<path fill="#0B3357" d="M171.034,1h4.121v5.682c0.408-0.477,0.871-0.835,1.389-1.074c0.518-0.239,1.091-0.358,1.719-0.358
			c1.297,0,2.371,0.52,3.219,1.56c0.852,1.041,1.273,2.533,1.273,4.479c0,1.297-0.193,2.44-0.581,3.428
			c-0.388,0.988-0.924,1.726-1.608,2.215c-0.686,0.487-1.445,0.731-2.28,0.731c-0.716,0-1.37-0.171-1.966-0.514
			c-0.447-0.269-0.938-0.771-1.465-1.51v1.756h-3.818L171.034,1L171.034,1z M175.125,11.423c0,1.021,0.172,1.761,0.517,2.22
			c0.344,0.459,0.78,0.689,1.311,0.689c0.486,0,0.896-0.226,1.229-0.677c0.332-0.451,0.496-1.21,0.496-2.276
			c0-0.939-0.16-1.628-0.484-2.069c-0.324-0.44-0.717-0.66-1.18-0.66c-0.556,0-1.008,0.229-1.357,0.688
			C175.3,9.796,175.125,10.492,175.125,11.423z"/>
		<path fill="#0B3357" d="M183.077,11.49c0-1.812,0.549-3.305,1.645-4.479c1.098-1.174,2.578-1.761,4.442-1.761
			c2.132,0,3.743,0.69,4.833,2.069c0.875,1.111,1.312,2.479,1.312,4.104c0,1.827-0.543,3.324-1.629,4.49
			c-1.086,1.168-2.59,1.75-4.509,1.75c-1.711,0-3.095-0.483-4.149-1.453C183.726,15.01,183.077,13.437,183.077,11.49z
			 M187.169,11.479c0,1.059,0.191,1.842,0.576,2.349c0.385,0.507,0.867,0.761,1.449,0.761c0.588,0,1.07-0.251,1.447-0.75
			c0.379-0.499,0.566-1.301,0.566-2.404c0-1.029-0.189-1.795-0.57-2.298c-0.383-0.503-0.854-0.755-1.414-0.755
			c-0.596,0-1.086,0.256-1.476,0.766C187.362,9.658,187.169,10.436,187.169,11.479z"/>
		<path fill="#0B3357" d="M196.231,1h4.09v16.396h-4.09V1z"/>
		<path fill="#0B3357" d="M201.831,1h4.081v3.098h-4.081V1z M201.831,5.519h4.081v11.877h-4.081V5.519z"/>
		<path fill="#0B3357" d="M207.345,5.519h3.801v1.935c0.566-0.79,1.144-1.355,1.726-1.694c0.581-0.339,1.29-0.509,2.126-0.509
			c1.129,0,2.014,0.375,2.65,1.124c0.64,0.75,0.957,1.907,0.957,3.473v7.549h-4.101v-6.531c0-0.745-0.124-1.273-0.372-1.583
			c-0.246-0.309-0.595-0.464-1.042-0.464c-0.495,0-0.896,0.209-1.204,0.626c-0.307,0.418-0.461,1.167-0.461,2.248v5.704h-4.08V5.519
			L207.345,5.519z"/>
		<path fill="#0B3357" d="M227.329,5.519h3.82v11.217l0.01,0.525c0,0.746-0.141,1.456-0.426,2.131
			c-0.284,0.675-0.662,1.22-1.133,1.639c-0.473,0.418-1.07,0.719-1.795,0.905c-0.727,0.187-1.558,0.278-2.492,0.278
			c-2.141,0-3.607-0.356-4.406-1.073c-0.799-0.716-1.198-1.675-1.198-2.874c0-0.15,0.007-0.352,0.021-0.605l3.961,0.504
			c0.102,0.41,0.254,0.693,0.461,0.85c0.303,0.231,0.68,0.348,1.135,0.348c0.588,0,1.025-0.176,1.316-0.526
			c0.291-0.35,0.438-0.962,0.438-1.833v-1.802c-0.398,0.53-0.803,0.913-1.203,1.152c-0.628,0.372-1.309,0.56-2.035,0.56
			c-1.424,0-2.572-0.693-3.447-2.08c-0.621-0.985-0.934-2.286-0.934-3.904c0-1.849,0.398-3.258,1.203-4.228
			c0.802-0.969,1.854-1.454,3.146-1.454c0.828,0,1.514,0.157,2.051,0.47c0.537,0.313,1.041,0.832,1.51,1.555L227.329,5.519
			L227.329,5.519z M223.489,11.278c0,0.857,0.164,1.494,0.49,1.907c0.328,0.414,0.76,0.621,1.295,0.621
			c0.508,0,0.934-0.214,1.276-0.643c0.345-0.429,0.519-1.076,0.519-1.94c0-0.864-0.182-1.527-0.543-1.985
			c-0.359-0.458-0.803-0.688-1.322-0.688c-0.521,0-0.938,0.21-1.249,0.632C223.646,9.603,223.489,10.301,223.489,11.278z"/>
		<path fill="#0B3357" d="M232.524,1h4.121v5.682c0.408-0.477,0.871-0.835,1.39-1.074c0.519-0.239,1.091-0.358,1.72-0.358
			c1.297,0,2.369,0.52,3.219,1.56c0.848,1.041,1.273,2.533,1.273,4.479c0,1.297-0.195,2.44-0.582,3.428
			c-0.389,0.988-0.924,1.726-1.609,2.215c-0.686,0.487-1.445,0.731-2.281,0.731c-0.715,0-1.369-0.171-1.965-0.514
			c-0.447-0.269-0.936-0.771-1.463-1.51v1.756h-3.82V1H232.524z M236.616,11.423c0,1.021,0.172,1.761,0.517,2.22
			s0.78,0.689,1.308,0.689c0.488,0,0.898-0.226,1.229-0.677c0.332-0.451,0.496-1.21,0.496-2.276c0-0.939-0.161-1.628-0.485-2.069
			c-0.324-0.44-0.718-0.66-1.179-0.66c-0.556,0-1.008,0.229-1.356,0.688C236.792,9.796,236.616,10.492,236.616,11.423z"/>
		<path fill="#0B3357" d="M245.179,5.519h3.819v1.946c0.368-0.842,0.747-1.422,1.138-1.739c0.393-0.317,0.875-0.476,1.449-0.476
			c0.602,0,1.26,0.209,1.977,0.626l-1.264,3.243c-0.482-0.224-0.863-0.335-1.145-0.335c-0.533,0-0.948,0.246-1.242,0.738
			c-0.422,0.693-0.633,1.99-0.633,3.892v3.981h-4.1V5.519L245.179,5.519z"/>
		<path fill="#0B3357" d="M252.417,11.49c0-1.812,0.547-3.305,1.645-4.479c1.098-1.174,2.576-1.761,4.441-1.761
			c2.133,0,3.743,0.69,4.832,2.069c0.877,1.111,1.314,2.479,1.314,4.104c0,1.827-0.543,3.324-1.631,4.49
			c-1.086,1.168-2.588,1.75-4.506,1.75c-1.713,0-3.098-0.483-4.15-1.453C253.063,15.01,252.417,13.437,252.417,11.49z
			 M256.507,11.479c0,1.059,0.192,1.842,0.577,2.349c0.384,0.507,0.867,0.761,1.448,0.761c0.589,0,1.072-0.251,1.449-0.75
			s0.564-1.301,0.564-2.404c0-1.029-0.189-1.795-0.57-2.298c-0.383-0.503-0.854-0.755-1.412-0.755c-0.598,0-1.088,0.256-1.477,0.766
			C256.701,9.658,256.507,10.436,256.507,11.479z"/>
		<path fill="#0B3357" d="M265.472,1h4.17v8.463l3.049-3.945h5.023l-3.82,4.16l4.041,7.717h-4.599l-2.157-4.761l-1.537,1.674v3.087
			h-4.17V1L265.472,1z"/>
		<path fill="#0B3357" d="M289.403,12.586h-8.182c0.071,0.73,0.25,1.275,0.529,1.633c0.396,0.514,0.909,0.771,1.544,0.771
			c0.401,0,0.782-0.111,1.146-0.336c0.221-0.142,0.457-0.392,0.711-0.749l4.021,0.414c-0.614,1.192-1.356,2.048-2.228,2.565
			c-0.868,0.52-2.114,0.777-3.739,0.777c-1.41,0-2.521-0.221-3.328-0.665c-0.81-0.443-1.479-1.147-2.01-2.113
			c-0.532-0.966-0.8-2.101-0.8-3.405c0-1.856,0.533-3.359,1.601-4.507s2.539-1.722,4.418-1.722c1.522,0,2.728,0.257,3.608,0.771
			c0.884,0.515,1.556,1.26,2.017,2.237c0.461,0.977,0.69,2.248,0.69,3.813v0.516H289.403z M285.253,10.406
			c-0.08-0.879-0.293-1.51-0.637-1.89c-0.346-0.38-0.797-0.57-1.359-0.57c-0.648,0-1.166,0.287-1.555,0.861
			c-0.246,0.358-0.404,0.892-0.471,1.6L285.253,10.406L285.253,10.406z"/>
	</g>
</g>
</svg>
