<?xml version="1.0" encoding="utf-8"?>
<!-- Generator: Adobe Illustrator 16.0.0, SVG Export Plug-In . SVG Version: 6.00 Build 0)  -->
<!DOCTYPE svg PUBLIC "-//W3C//DTD SVG 1.0//EN" "http://www.w3.org/TR/2001/REC-SVG-20010904/DTD/svg10.dtd">
<svg version="1.0" id="Layer_1" xmlns="http://www.w3.org/2000/svg" xmlns:xlink="http://www.w3.org/1999/xlink" x="0px" y="0px"
	 width="296.963px" height="39.498px" viewBox="0 0 296.963 39.498" enable-background="new 0 0 296.963 39.498"
	 xml:space="preserve">
<g id="Layer_1_1_" display="none">
	<path display="inline" fill="#01B09A" d="M0,7.269c0-2.396,0-4.734,0-7.165c9.697,0,19.302,0,29.031,0c0,2.35,0,4.689,0,7.165
		C19.396,7.269,9.75,7.269,0,7.269z"/>
	<path display="inline" fill="#01B09A" d="M29.096,14.708c0,2.451,0,4.745,0,7.165c-9.693,0-19.344,0-29.096,0
		c0-2.389,0-4.727,0-7.165C9.701,14.708,19.307,14.708,29.096,14.708z"/>
	<path display="inline" fill="#505052" d="M161.149,19.132c-1.183-2.194-1.112-2.684,0.521-4.5c-1.907-1.826-2.375-3.45-1.549-5.439
		c0.903-2.178,2.797-2.739,4.866-2.738c1.253,0.001,2.503,0.385,3.893,0.619c0.219-0.411,0.479-0.903,0.842-1.585
		c0.707,0.262,1.457,0.537,2.538,0.938c-0.739,0.911-1.346,1.657-2.046,2.521c0.604,4.908-1.305,6.736-7.027,6.269
		c-0.539,0.274-0.785,0.761-0.771,1.062c0.016,0.299,0.834,0.736,0.995,0.742c1.345,0.051,2.692,0.035,4.039,0.106
		c2.478,0.129,3.893,1.272,4.102,3.249c0.214,2.02-0.836,3.677-3.169,4.154c-1.97,0.402-4.056,0.421-6.078,0.33
		c-1.494-0.068-2.943-0.666-3.295-2.434C158.669,20.703,159.519,19.609,161.149,19.132z M164.867,19.693
		c-0.446,0.07-1.366,0.087-2.183,0.387c-0.422,0.154-0.908,0.808-0.914,1.239c-0.006,0.447,0.438,1.144,0.854,1.312
		c1.723,0.697,3.525,0.654,5.21-0.108c0.433-0.196,0.867-1.033,0.797-1.502c-0.065-0.455-0.719-0.993-1.225-1.168
		C166.771,19.632,166.019,19.745,164.867,19.693z M167.504,10.861c-0.022-1.416-1.03-2.352-2.485-2.305
		c-1.516,0.049-2.283,0.904-2.229,2.486c0.046,1.409,0.895,2.215,2.318,2.211C166.588,13.248,167.524,12.312,167.504,10.861z"/>
	<path display="inline" fill="#59595B" d="M63.994,19.336c-0.856,0-1.557,0-2.371,0c-0.167-0.331-0.357-0.707-0.574-1.137
		c-0.177,0.093-0.344,0.148-0.474,0.253c-3.027,2.412-6.855,1.333-7.951-2.347c-0.357-1.199-0.443-2.53-0.395-3.792
		c0.179-4.684,4.204-7.586,8.803-4.769c0-2.094,0-4.136,0-6.294c1.013,0,1.939,0,2.962,0C63.994,7.253,63.994,13.194,63.994,19.336z
		 M61.131,12.976c-0.016,0-0.019-0.898-0.053-1.344c-0.129-1.709-0.888-2.618-2.323-2.815c-1.566-0.215-2.885,0.436-3.203,2.046
		c-0.286,1.449-0.266,3.045,0.021,4.497c0.283,1.431,1.635,2.156,2.883,2.017c1.354-0.151,2.403-1.214,2.589-2.675
		C61.119,14.131,61.105,13.551,61.131,12.976z"/>
	<path display="inline" fill="#505052" d="M120.699,7.226c-0.996,0.227-1.852,0.421-2.852,0.647
		c-0.394-1.36-1.094-2.386-2.605-2.428c-1.044-0.029-1.918,0.295-2.289,1.371c-0.388,1.126,0.188,1.897,1.127,2.348
		c1.383,0.662,2.867,1.117,4.225,1.821c2.182,1.132,2.982,3.421,2.137,5.725c-0.088,0.237-0.189,0.479-0.33,0.688
		c-1.61,2.391-4.068,2.463-6.533,2.229c-2.48-0.233-3.745-1.495-4.339-4.069c0.789-0.301,1.6-0.609,2.57-0.979
		c0.442,1.471,1.227,2.505,2.725,2.751c1.364,0.226,2.701-0.429,3.006-1.472c0.316-1.074-0.232-1.999-1.663-2.646
		c-1.106-0.5-2.278-0.856-3.369-1.388c-2.171-1.06-3.104-2.807-2.759-4.972c0.351-2.197,1.698-3.497,4.203-3.781
		c1.123-0.127,2.32-0.072,3.423,0.176C119.305,3.683,120.452,4.961,120.699,7.226z"/>
	<path display="inline" fill="#505052" d="M44.43,7.248c-0.92,0.212-1.719,0.396-2.627,0.605c-0.206-0.432-0.347-0.843-0.582-1.192
		c-0.629-0.937-1.569-1.479-2.638-1.143c-0.69,0.218-1.455,0.804-1.778,1.433c-0.417,0.813,0.059,1.669,0.904,2.075
		c1.151,0.553,2.361,0.982,3.537,1.487c1.593,0.684,2.925,1.619,3.234,3.5c0.465,2.831-0.759,4.782-3.593,5.407
		c-1.167,0.258-2.434,0.319-3.622,0.182c-2.361-0.274-3.464-1.384-4.265-4.011c0.808-0.303,1.626-0.609,2.558-0.958
		c0.246,0.448,0.447,0.82,0.652,1.19c0.725,1.309,1.917,1.657,3.28,1.479c0.925-0.12,1.752-0.518,1.918-1.596
		c0.155-1.007-0.238-1.788-1.163-2.208c-1.225-0.555-2.504-0.993-3.721-1.563c-2.335-1.096-3.264-2.867-2.861-5.295
		c0.01-0.062,0.003-0.13,0.016-0.191c0.475-2.305,2.675-3.656,5.693-3.5C42.557,3.114,44.16,4.424,44.43,7.248z"/>
	<path display="inline" fill="#505052" d="M182.726,13.695c-2.437,0-4.912,0-7.369,0c-0.229,1.78,0.278,2.874,1.5,3.4
		c1.457,0.632,2.474,0.231,3.9-1.592c0.678,0.206,1.393,0.422,2.51,0.763c-0.632,0.911-1.009,1.813-1.678,2.361
		c-2.994,2.459-8.092,0.93-9.046-2.822c-0.408-1.606-0.414-3.462-0.062-5.086c0.744-3.428,4.138-5.116,7.453-3.996
		C182.479,7.583,183.674,10.471,182.726,13.695z M175.171,11.735c0.973,0,1.796,0,2.619,0c0.805,0,1.605,0,2.42,0
		c-0.15-2.134-0.786-2.918-2.243-3.015C176.478,8.623,175.5,9.594,175.171,11.735z"/>
	<path display="inline" fill="#505052" d="M89.775,13.695c-2.436,0-4.912,0-7.368,0c-0.228,1.78,0.278,2.874,1.499,3.4
		c1.458,0.632,2.474,0.231,3.901-1.592c0.677,0.206,1.392,0.422,2.51,0.763c-0.631,0.911-1.01,1.813-1.677,2.361
		c-2.995,2.459-8.092,0.93-9.046-2.822c-0.409-1.606-0.415-3.462-0.062-5.086c0.745-3.428,4.137-5.116,7.453-3.996
		C89.53,7.583,90.725,10.471,89.775,13.695z M82.222,11.735c0.972,0,1.796,0,2.62,0c0.803,0,1.605,0,2.419,0
		c-0.151-2.134-0.786-2.918-2.243-3.015C83.527,8.623,82.551,9.594,82.222,11.735z"/>
	<path display="inline" fill="#505052" d="M157.84,19.277c-1.096,0-1.971,0-3.017,0c0-2.514,0.007-4.938-0.002-7.36
		c-0.008-2.119-0.528-2.91-1.909-2.95c-1.406-0.041-2.509,0.966-2.631,2.744c-0.146,2.108-0.062,4.23-0.076,6.35
		c-0.003,0.371-0.001,0.741-0.001,1.211c-0.95,0-1.756,0-2.698,0c0-4.112,0-12.5,0-12.5l2.198-0.032l0.061,2.229
		c0.664-0.988,2.375-2.175,3.485-2.415c2.578-0.56,4.479,0.938,4.565,3.566C157.916,13.123,157.84,16.133,157.84,19.277z"/>
	<path display="inline" fill="#59595B" d="M130.291,16.686c0.168,0.681,0.334,1.35,0.521,2.101c-1.564,1.067-3.24,1.187-4.954,0.68
		c-1.559-0.46-2.241-1.585-2.278-3.61c-0.039-2.18-0.009-4.771-0.009-6.995l-1.75,0.013V6.51h1.692l0.024-2.442l3.085-0.315
		l-0.012,2.876c0,0,2.34,0,3.585,0c0,0.87,0,1.544,0,2.367c-1.085,0-2.159,0-3.54,0c0,2.403-0.045,4.667,0.023,6.928
		c0.025,0.816,0.652,1.245,1.48,1.159C128.844,17.011,129.516,16.834,130.291,16.686z"/>
	<path display="inline" fill="#505052" d="M134.676,6.699l0.229,2.812c1.146-1.729,2.854-3.196,5.14-3.001
		c-0.078,1.028-0.157,2.06-0.242,3.163c-0.604,0-1.049-0.029-1.489,0.006c-1.906,0.147-2.981,1.354-3.095,3.684
		c-0.093,1.913-0.019,3.833-0.019,5.878c-0.942,0-1.795,0-2.775,0c0-4.022,0-8.085,0-12.442
		C133.109,6.768,134.676,6.699,134.676,6.699z"/>
	<path display="inline" fill="#59595B" d="M49.881,6.841c0,4.123,0,8.271,0,12.479c-0.975,0-1.86,0-2.855,0
		c0-4.148,0-8.235,0-12.479C47.949,6.841,48.866,6.841,49.881,6.841z"/>
	<path display="inline" fill="#59595B" d="M142.068,19.245c0-4.192,0-8.232,0-12.416c0.955,0,1.869,0,2.898,0
		c0,4.115,0,8.196,0,12.416C144.055,19.245,143.139,19.245,142.068,19.245z"/>
	<path display="inline" fill="#59595B" d="M50.347,2.822c0.015,1.139-0.791,1.926-1.937,1.892c-0.992-0.03-1.84-0.871-1.861-1.846
		c-0.021-0.997,0.765-1.808,1.808-1.864C49.549,0.94,50.333,1.656,50.347,2.822z"/>
	<path display="inline" fill="#505052" d="M77.114,19.277c-1.096,0-1.97,0-3.016,0c0-2.514,0.007-4.938-0.002-7.36
		c-0.007-2.119-0.528-2.91-1.909-2.95c-1.407-0.041-2.509,0.966-2.631,2.744c-0.145,2.108-0.062,4.23-0.076,6.35
		c-0.002,0.371,0,0.741,0,1.211c-0.95,0-1.756,0-2.699,0c0-4.112,0-12.5,0-12.5l2.198-0.032l0.061,2.229
		c0.663-0.988,2.375-2.175,3.486-2.415c2.578-0.56,4.478,0.938,4.565,3.566C77.191,13.123,77.114,16.133,77.114,19.277z"/>
	<path display="inline" fill="#59595B" d="M143.479,4.716c-1.086-0.041-1.918-0.978-1.822-2.053c0.09-1.012,0.918-1.698,1.995-1.658
		c1.094,0.042,1.804,0.762,1.808,1.834C145.463,3.946,144.607,4.758,143.479,4.716z"/>
	<path display="inline" fill="#505052" d="M90.986,6.852c1.162,0,2.054,0,3.18,0c0.913,3.013,1.851,6.109,2.882,9.516
		c0.997-3.326,1.901-6.346,2.833-9.455c0.982,0,1.919,0,3.107,0c-0.478,1.367-0.932,2.661-1.384,3.956
		c-1.224,3.51-2.359,7.054-3.698,10.521c-1.261,3.262-3.458,4.239-6.917,3.213c0.067-0.688,0.139-1.42,0.221-2.271
		c0.555,0.056,0.983,0.122,1.413,0.134c2.053,0.057,3.216-1.456,2.555-3.416c-1.248-3.704-2.556-7.387-3.837-11.08
		C91.239,7.68,91.154,7.384,90.986,6.852z"/>
	<path display="inline" fill="#505052" d="M187.515,6.699l0.229,2.812c1.146-1.729,2.854-3.196,5.141-3.001
		c-0.077,1.028-0.157,2.06-0.241,3.163c-0.604,0-1.051-0.029-1.49,0.006c-1.905,0.147-2.98,1.354-3.094,3.684
		c-0.095,1.913-0.021,3.833-0.021,5.878c-0.94,0-1.795,0-2.774,0c0-4.022,0-8.085,0-12.442
		C185.946,6.768,187.515,6.699,187.515,6.699z"/>
	<path display="inline" fill="#59595B" d="M282.938,19.18c-1.127,0-2.008,0-3.037,0c0-2.592,0.013-5.085-0.004-7.578
		c-0.013-1.857-0.401-2.465-1.599-2.588c-1.397-0.145-2.544,0.757-2.633,2.43c-0.131,2.494-0.033,5.001-0.033,7.667
		c-1.043,0-1.952,0-3.061,0c0-2.494,0.011-4.979-0.005-7.464c-0.01-1.945-0.446-2.584-1.744-2.64
		c-1.422-0.062-2.428,0.837-2.504,2.569c-0.107,2.49-0.026,4.99-0.026,7.593c-1.055,0-1.93,0-2.928,0c0-4.104,0-8.172,0-12.345
		c0.707,0,1.393,0,2.213,0c0.151,0.445,0.319,0.939,0.499,1.459c2.378-2.733,5.752-2.405,7.277,0.195
		c0.976-1.43,2.252-2.163,3.992-2.069c2.209,0.119,3.498,1.19,3.564,3.438C283.008,12.924,282.938,16.006,282.938,19.18z"/>
	<path display="inline" fill="#505052" d="M203.672,3.339c1.39,0,2.537,0,3.882,0c1.885,5.188,3.777,10.396,5.732,15.775
		c-1.128,0-2.061,0-3.196,0c-0.43-1.125-0.899-2.359-1.411-3.694c-2,0-4.037,0-6.236,0c-0.433,1.164-0.893,2.407-1.381,3.727
		c-0.944,0-1.888,0-3.104,0C199.885,13.813,201.763,8.62,203.672,3.339z M203.345,12.732c1.569,0,2.916,0,4.411,0
		c-0.737-2.273-1.423-4.379-2.217-6.823C204.748,8.367,204.071,10.468,203.345,12.732z"/>
	<path display="inline" fill="#505052" d="M283.961,6.789c1.161,0,2.054,0,3.181,0c0.912,3.013,1.851,6.108,2.881,9.516
		c0.998-3.326,1.901-6.347,2.832-9.456c0.982,0,1.92,0,3.108,0c-0.479,1.368-0.933,2.662-1.385,3.957
		c-1.226,3.51-2.358,7.053-3.699,10.519c-1.26,3.263-3.457,4.24-6.916,3.214c0.067-0.688,0.14-1.42,0.222-2.271
		c0.556,0.056,0.983,0.121,1.412,0.133c2.053,0.057,3.217-1.454,2.557-3.416c-1.247-3.703-2.557-7.387-3.838-11.079
		C284.214,7.616,284.129,7.321,283.961,6.789z"/>
	<path display="inline" fill="#505052" d="M237.457,17.146c0,0.855,0,1.424,0,1.963c-2.013,0.742-2.656,0.6-3.996-0.643
		c-1.502,0.434-2.774,1.026-4.083,1.121c-1.886,0.137-3.191-0.998-3.511-2.607c-0.373-1.877,0.372-3.623,2.122-4.24
		c1.479-0.522,3.087-0.684,4.832-1.045c0.236-0.962,0.386-2.089-0.879-2.784c-1.092-0.601-2.114-0.017-3.183,1.746
		c-0.763-0.138-1.565-0.283-2.618-0.474c0.221-0.683,0.312-1.305,0.604-1.815c0.965-1.693,3.967-2.479,6.441-1.748
		c1.873,0.552,2.688,1.78,2.703,4.104c0.01,1.538,0.039,3.077-0.012,4.612C235.847,16.447,236.067,17.266,237.457,17.146z
		 M232.835,13.69c-1.093,0.215-2.165,0.228-3.02,0.666c-0.527,0.271-1.012,1.193-1,1.815c0.017,0.965,0.922,1.302,1.826,1.284
		C232.388,17.423,233.153,16.245,232.835,13.69z"/>
	<path display="inline" fill="#505052" d="M263.215,13.62c-2.868,0-5.409,0-7.952,0c0.094,2.087,0.721,3.147,1.982,3.548
		c1.377,0.436,2.318-0.01,3.552-1.742c0.738,0.219,1.515,0.449,2.404,0.715c-0.536,2.073-1.845,3.113-3.774,3.383
		c-2.423,0.336-4.646-0.023-6.128-2.256c-1.493-2.256-1.411-6.389,0.125-8.624c1.267-1.84,3.753-2.688,6.188-2.11
		c2.025,0.48,3.363,2.12,3.592,4.484C263.276,11.77,263.215,12.534,263.215,13.62z M260.351,11.603
		c-0.229-2.2-0.932-2.962-2.471-2.923c-1.544,0.041-2.398,1.008-2.541,2.923C256.969,11.603,258.594,11.603,260.351,11.603z"/>
	<path display="inline" fill="#505052" d="M224.242,10.472c-0.777,0.187-1.511,0.363-2.208,0.53
		c-0.149-0.117-0.305-0.174-0.333-0.271c-0.354-1.135-0.976-2.006-2.279-1.946c-1.382,0.063-2.37,0.896-2.534,2.209
		c-0.179,1.415-0.121,2.902,0.107,4.314c0.188,1.152,1.127,1.83,2.334,1.953c1.167,0.118,1.958-0.418,2.42-1.486
		c0.068-0.157,0.241-0.271,0.421-0.465c0.714,0.215,1.427,0.43,2.173,0.651c0.064,1.34-0.599,2.164-1.521,2.797
		c-3.08,2.113-7.562,0.681-8.707-2.844c-0.781-2.403-0.679-4.816,0.629-7.051c1.135-1.939,3.465-2.851,6.043-2.383
		c1.789,0.326,3.01,1.354,3.448,3.176C224.291,9.89,224.242,10.146,224.242,10.472z"/>
	<path display="inline" fill="#59595B" d="M250.168,19.27c-0.856,0-1.558,0-2.371,0c-0.168-0.33-0.356-0.707-0.573-1.137
		c-0.179,0.094-0.346,0.149-0.476,0.253c-3.026,2.412-6.854,1.332-7.951-2.346c-0.356-1.2-0.442-2.532-0.396-3.793
		c0.18-4.684,4.205-7.587,8.804-4.77c0-2.094,0-4.135,0-6.293c1.015,0,1.938,0,2.963,0C250.168,7.187,250.168,13.128,250.168,19.27z
		 M247.306,12.909c-0.017-0.001-0.021-0.898-0.054-1.344c-0.129-1.709-0.89-2.618-2.321-2.815c-1.565-0.216-2.887,0.435-3.203,2.046
		c-0.287,1.449-0.267,3.045,0.021,4.496c0.281,1.431,1.634,2.156,2.884,2.017c1.354-0.15,2.402-1.215,2.591-2.675
		C247.292,14.063,247.278,13.483,247.306,12.909z"/>
	
		<text transform="matrix(0.8966 0 0 1 -106 2.5)" display="inline" fill="#0B3357" font-family="'Arial-Black'" font-size="52.2" letter-spacing="-1.115">ormiston bolingbroke</text>
	
		<text transform="matrix(0.8966 0 0 1 -105 2.5)" display="inline" fill="#0B3357" font-family="'Arial-Black'" font-size="52.2" letter-spacing="-1.115">ormiston bolingbroke</text>
</g>
<g id="Layer_3">
	
		<linearGradient id="SVGID_1_" gradientUnits="userSpaceOnUse" x1="75.1294" y1="-179.9868" x2="75.1294" y2="-126.6899" gradientTransform="matrix(1 0 0 -1 -47.5 -130.502)">
		<stop  offset="0" style="stop-color:#F4EDC1"/>
		<stop  offset="1" style="stop-color:#F7A30C"/>
	</linearGradient>
	<circle display="none" fill="url(#SVGID_1_)" cx="27.63" cy="22.837" r="26.649"/>
	
		<linearGradient id="SVGID_2_" gradientUnits="userSpaceOnUse" x1="75.1294" y1="-179.9868" x2="75.1294" y2="-126.6899" gradientTransform="matrix(1 0 0 -1 -47.5 -130.502)">
		<stop  offset="0" style="stop-color:#F4EDC1"/>
		<stop  offset="1" style="stop-color:#F7A30C"/>
	</linearGradient>
	<circle display="none" fill="url(#SVGID_2_)" cx="27.63" cy="22.837" r="26.649"/>
	<g id="Shape_1">
		<g>
			<polygon fill="#209DD3" points="1.962,30.176 62.289,30.176 62.289,14.971 			"/>
		</g>
	</g>
	<g id="Shape_2">
		<g>
			<path fill="#0B3357" d="M62.167,7.369c0,0-23.113,8.031-28.692,9.074c-9.809,2.145-14.775-4.721-21.948-1.962
				C5.334,16.443,5.396,26.437,2.33,29.072c0.062,0,2.084-0.552,2.084-0.613c1.533-9.687,9.012-16.859,16.798-4.414
				c3.924-0.919,41.076-10.054,41.076-10.054L62.167,7.369z"/>
		</g>
	</g>
	<g>
		<path fill="#FFFFFF" d="M55.992,28.724c-1.109-0.722-3.304-2.396-3.507-3.73l0.005-5.438c0.827-0.124,2.317-0.208,3.809-0.208
			c1.374,0,2.539,0.071,3.242,0.195v5.566C59.411,26.118,57.396,27.791,55.992,28.724z"/>
		<path fill="#0B3357" d="M56.299,19.847c1.09,0,2.061,0.047,2.742,0.128v5.057c-0.145,0.722-1.591,2.078-3.053,3.091
			c-1.278-0.87-2.799-2.216-2.998-3.144v-4.982C53.766,19.913,54.953,19.847,56.299,19.847 M56.299,18.847
			c-1.769,0-3.582,0.117-4.309,0.294v5.926c0.306,2.002,4.005,4.25,4.005,4.25s3.821-2.411,4.046-4.209v-5.967
			C59.305,18.933,57.818,18.847,56.299,18.847L56.299,18.847z"/>
	</g>
	<polygon fill="#E62003" points="55.116,19.018 55.116,22.573 52.316,22.573 52.316,24.433 55.116,24.433 55.116,28.728 
		56.855,28.728 56.855,24.372 59.756,24.372 59.756,22.573 56.854,22.573 56.854,19.018 	"/>
	<g>
		<path fill="#0B3357" d="M56.299,19.847c1.09,0,2.061,0.047,2.742,0.128v5.057c-0.145,0.722-1.591,2.078-3.053,3.091
			c-1.278-0.87-2.799-2.216-2.998-3.144v-4.982C53.766,19.913,54.953,19.847,56.299,19.847 M56.299,18.847
			c-1.769,0-3.582,0.117-4.309,0.294v5.926c0.306,2.002,4.005,4.25,4.005,4.25s3.821-2.411,4.046-4.209v-5.967
			C59.305,18.933,57.818,18.847,56.299,18.847L56.299,18.847z"/>
	</g>
	
		<text transform="matrix(1.0798 -0.2622 0.236 0.9718 22.8047 22.5059)" fill="#F7A30C" font-family="'MinionPro-Regular'" font-size="3.2004">LUCERE ~ AUDE</text>
</g>
<g id="Layer_2">
	<text transform="matrix(1.05 0 0 1 193.5771 34.5371)" fill="#0B3357" font-family="'ArialMT'" font-size="21.9389">academy</text>
	<g>
		<path fill="#0B3357" d="M65.526,11.49c0-1.812,0.548-3.305,1.644-4.479c1.097-1.174,2.577-1.761,4.442-1.761
			c2.132,0,3.744,0.69,4.833,2.069c0.876,1.111,1.313,2.479,1.313,4.104c0,1.827-0.543,3.324-1.629,4.49
			c-1.086,1.168-2.588,1.75-4.507,1.75c-1.711,0-3.095-0.483-4.151-1.453C66.174,15.01,65.526,13.437,65.526,11.49z M69.617,11.479
			c0,1.059,0.192,1.842,0.577,2.349c0.384,0.507,0.867,0.761,1.449,0.761c0.588,0,1.071-0.251,1.449-0.75
			c0.378-0.499,0.566-1.301,0.566-2.404c0-1.029-0.19-1.795-0.571-2.298c-0.381-0.503-0.852-0.755-1.414-0.755
			c-0.595,0-1.086,0.256-1.474,0.766C69.811,9.658,69.617,10.436,69.617,11.479z"/>
		<path fill="#0B3357" d="M78.6,5.519h3.82v1.946c0.367-0.842,0.747-1.422,1.138-1.739s0.874-0.476,1.449-0.476
			c0.602,0,1.26,0.209,1.976,0.626L85.719,9.12c-0.481-0.224-0.862-0.335-1.143-0.335c-0.535,0-0.95,0.246-1.244,0.738
			c-0.421,0.693-0.631,1.99-0.631,3.892v3.981H78.6V5.519z"/>
		<path fill="#0B3357" d="M86.858,5.519h3.811v1.733c0.549-0.723,1.103-1.238,1.662-1.543c0.559-0.306,1.233-0.458,2.023-0.458
			c0.85,0,1.523,0.168,2.019,0.503s0.9,0.835,1.215,1.499c0.641-0.775,1.225-1.303,1.752-1.583c0.527-0.279,1.178-0.419,1.953-0.419
			c1.141,0,2.032,0.378,2.673,1.135c0.641,0.757,0.961,1.94,0.961,3.551v7.459h-4.091V10.63c0-0.537-0.094-0.936-0.28-1.197
			c-0.273-0.41-0.613-0.615-1.019-0.615c-0.479,0-0.866,0.194-1.159,0.582c-0.293,0.387-0.44,1.01-0.44,1.867v6.129h-4.09v-6.542
			c0-0.522-0.027-0.876-0.081-1.063c-0.087-0.298-0.238-0.539-0.453-0.721C93.1,8.887,92.848,8.796,92.56,8.796
			c-0.47,0-0.855,0.198-1.157,0.593c-0.302,0.396-0.453,1.044-0.453,1.946v6.062h-4.091L86.858,5.519L86.858,5.519z"/>
		<path fill="#0B3357" d="M106.343,1h4.081v3.098h-4.081V1z M106.343,5.519h4.081v11.877h-4.081V5.519z"/>
		<path fill="#0B3357" d="M111.13,14.097l4.051-0.425c0.167,0.537,0.401,0.921,0.702,1.152c0.301,0.231,0.702,0.347,1.204,0.347
			c0.548,0,0.972-0.13,1.273-0.391c0.234-0.194,0.351-0.437,0.351-0.726c0-0.328-0.154-0.581-0.461-0.759
			c-0.221-0.126-0.806-0.283-1.755-0.469c-1.417-0.275-2.401-0.53-2.953-0.765c-0.551-0.234-1.016-0.631-1.394-1.189
			c-0.378-0.559-0.566-1.195-0.566-1.911c0-0.782,0.204-1.456,0.611-2.023c0.408-0.565,0.969-0.988,1.685-1.268
			c0.715-0.279,1.674-0.419,2.877-0.419c1.271,0,2.208,0.108,2.813,0.324c0.605,0.216,1.109,0.552,1.514,1.006
			c0.404,0.455,0.74,1.07,1.007,1.846l-3.87,0.425c-0.101-0.38-0.268-0.66-0.501-0.839c-0.321-0.239-0.708-0.358-1.163-0.358
			c-0.461,0-0.797,0.092-1.008,0.274c-0.21,0.182-0.316,0.404-0.316,0.665c0,0.29,0.134,0.51,0.401,0.658
			c0.267,0.149,0.849,0.283,1.745,0.402c1.357,0.171,2.366,0.41,3.028,0.715c0.662,0.305,1.168,0.741,1.519,1.307
			c0.351,0.566,0.526,1.188,0.526,1.866c0,0.686-0.186,1.353-0.557,2.001c-0.371,0.647-0.956,1.163-1.755,1.547
			c-0.799,0.383-1.887,0.574-3.264,0.574c-1.945,0-3.331-0.309-4.156-0.928C111.893,16.117,111.364,15.237,111.13,14.097z"/>
		<path fill="#0B3357" d="M127.986,2.175v3.343h2.246v3.333h-2.246v4.208c0,0.506,0.043,0.841,0.13,1.004
			c0.134,0.253,0.368,0.38,0.702,0.38c0.301,0,0.722-0.098,1.263-0.291l0.301,3.143c-1.009,0.246-1.952,0.368-2.828,0.368
			c-1.016,0-1.765-0.145-2.246-0.435s-0.837-0.731-1.068-1.323c-0.231-0.593-0.346-1.552-0.346-2.876V8.851h-1.504V5.519h1.504
			V2.185L127.986,2.175z"/>
		<path fill="#0B3357" d="M130.469,11.49c0-1.812,0.548-3.305,1.644-4.479c1.096-1.174,2.577-1.761,4.442-1.761
			c2.132,0,3.743,0.69,4.833,2.069c0.875,1.111,1.313,2.479,1.313,4.104c0,1.827-0.543,3.324-1.629,4.49
			c-1.086,1.168-2.588,1.75-4.507,1.75c-1.711,0-3.095-0.483-4.151-1.453C131.117,15.01,130.469,13.437,130.469,11.49z
			 M134.56,11.479c0,1.059,0.192,1.842,0.576,2.349c0.384,0.507,0.868,0.761,1.449,0.761c0.588,0,1.071-0.251,1.449-0.75
			s0.566-1.301,0.566-2.404c0-1.029-0.19-1.795-0.571-2.298c-0.381-0.503-0.853-0.755-1.414-0.755c-0.595,0-1.086,0.256-1.474,0.766
			C134.753,9.658,134.56,10.436,134.56,11.479z"/>
		<path fill="#0B3357" d="M143.522,5.519h3.8v1.935c0.568-0.79,1.143-1.355,1.725-1.694c0.581-0.339,1.289-0.509,2.125-0.509
			c1.13,0,2.015,0.375,2.652,1.124c0.639,0.75,0.957,1.907,0.957,3.473v7.549h-4.101v-6.531c0-0.745-0.125-1.273-0.371-1.583
			c-0.248-0.309-0.596-0.464-1.043-0.464c-0.496,0-0.896,0.209-1.204,0.626c-0.308,0.418-0.461,1.167-0.461,2.248v5.704h-4.081
			L143.522,5.519L143.522,5.519z"/>
		<path fill="#0B3357" d="M162.034,1h4.121v5.682c0.408-0.477,0.871-0.835,1.389-1.074c0.518-0.239,1.091-0.358,1.719-0.358
			c1.297,0,2.371,0.52,3.219,1.56c0.851,1.041,1.273,2.533,1.273,4.479c0,1.297-0.193,2.44-0.581,3.428
			c-0.388,0.988-0.924,1.726-1.608,2.215c-0.686,0.487-1.446,0.731-2.281,0.731c-0.715,0-1.37-0.171-1.965-0.514
			c-0.448-0.269-0.938-0.771-1.465-1.51v1.756h-3.819L162.034,1L162.034,1z M166.125,11.423c0,1.021,0.172,1.761,0.517,2.22
			c0.344,0.459,0.78,0.689,1.31,0.689c0.487,0,0.896-0.226,1.228-0.677c0.332-0.451,0.497-1.21,0.497-2.276
			c0-0.939-0.161-1.628-0.485-2.069c-0.324-0.44-0.717-0.66-1.18-0.66c-0.555,0-1.007,0.229-1.357,0.688
			C166.3,9.796,166.125,10.492,166.125,11.423z"/>
		<path fill="#0B3357" d="M174.077,11.49c0-1.812,0.549-3.305,1.645-4.479c1.098-1.174,2.578-1.761,4.442-1.761
			c2.132,0,3.743,0.69,4.833,2.069c0.875,1.111,1.312,2.479,1.312,4.104c0,1.827-0.543,3.324-1.629,4.49
			c-1.086,1.168-2.589,1.75-4.508,1.75c-1.711,0-3.095-0.483-4.15-1.453C174.726,15.01,174.077,13.437,174.077,11.49z
			 M178.169,11.479c0,1.059,0.191,1.842,0.576,2.349c0.385,0.507,0.867,0.761,1.449,0.761c0.588,0,1.07-0.251,1.447-0.75
			c0.379-0.499,0.567-1.301,0.567-2.404c0-1.029-0.19-1.795-0.571-2.298c-0.382-0.503-0.853-0.755-1.414-0.755
			c-0.595,0-1.086,0.256-1.475,0.766C178.362,9.658,178.169,10.436,178.169,11.479z"/>
		<path fill="#0B3357" d="M187.231,1h4.09v16.396h-4.09V1z"/>
		<path fill="#0B3357" d="M192.831,1h4.081v3.098h-4.081V1z M192.831,5.519h4.081v11.877h-4.081V5.519z"/>
		<path fill="#0B3357" d="M198.345,5.519h3.801v1.935c0.566-0.79,1.143-1.355,1.725-1.694c0.581-0.339,1.29-0.509,2.126-0.509
			c1.129,0,2.014,0.375,2.651,1.124c0.639,0.75,0.957,1.907,0.957,3.473v7.549h-4.101v-6.531c0-0.745-0.124-1.273-0.372-1.583
			c-0.246-0.309-0.595-0.464-1.042-0.464c-0.495,0-0.896,0.209-1.204,0.626c-0.307,0.418-0.461,1.167-0.461,2.248v5.704h-4.08V5.519
			L198.345,5.519z"/>
		<path fill="#0B3357" d="M218.329,5.519h3.82v11.217l0.01,0.525c0,0.746-0.141,1.456-0.426,2.131
			c-0.284,0.675-0.662,1.22-1.133,1.639c-0.472,0.418-1.07,0.719-1.795,0.905c-0.726,0.187-1.557,0.279-2.492,0.279
			c-2.14,0-3.607-0.357-4.406-1.074c-0.799-0.715-1.198-1.674-1.198-2.873c0-0.15,0.007-0.352,0.021-0.605l3.961,0.504
			c0.101,0.41,0.254,0.693,0.461,0.85c0.302,0.231,0.679,0.348,1.134,0.348c0.588,0,1.026-0.176,1.317-0.526
			c0.291-0.35,0.437-0.962,0.437-1.833v-1.802c-0.399,0.53-0.802,0.913-1.203,1.152c-0.628,0.372-1.308,0.56-2.035,0.56
			c-1.424,0-2.573-0.693-3.448-2.08c-0.621-0.985-0.933-2.286-0.933-3.904c0-1.849,0.399-3.258,1.203-4.228
			c0.802-0.969,1.853-1.454,3.147-1.454c0.828,0,1.513,0.157,2.051,0.47c0.537,0.313,1.041,0.832,1.509,1.555L218.329,5.519
			L218.329,5.519z M214.489,11.278c0,0.857,0.164,1.494,0.49,1.907c0.328,0.414,0.76,0.621,1.295,0.621
			c0.508,0,0.934-0.214,1.277-0.643c0.344-0.429,0.518-1.076,0.518-1.94c0-0.864-0.182-1.527-0.543-1.985
			c-0.359-0.458-0.803-0.688-1.322-0.688c-0.521,0-0.938,0.21-1.249,0.632C214.646,9.603,214.489,10.301,214.489,11.278z"/>
		<path fill="#0B3357" d="M223.524,1h4.121v5.682c0.408-0.477,0.871-0.835,1.39-1.074c0.519-0.239,1.091-0.358,1.72-0.358
			c1.297,0,2.369,0.52,3.219,1.56c0.848,1.041,1.273,2.533,1.273,4.479c0,1.297-0.195,2.44-0.582,3.428
			c-0.389,0.988-0.924,1.726-1.609,2.215c-0.686,0.487-1.445,0.731-2.281,0.731c-0.715,0-1.369-0.171-1.965-0.514
			c-0.447-0.269-0.936-0.771-1.463-1.51v1.756h-3.82V1H223.524z M227.616,11.423c0,1.021,0.172,1.761,0.517,2.22
			s0.78,0.689,1.308,0.689c0.488,0,0.898-0.226,1.229-0.677c0.332-0.451,0.496-1.21,0.496-2.276c0-0.939-0.161-1.628-0.485-2.069
			c-0.324-0.44-0.718-0.66-1.179-0.66c-0.556,0-1.008,0.229-1.356,0.688C227.792,9.796,227.616,10.492,227.616,11.423z"/>
		<path fill="#0B3357" d="M236.179,5.519h3.819v1.946c0.368-0.842,0.747-1.422,1.138-1.739c0.393-0.317,0.875-0.476,1.449-0.476
			c0.602,0,1.26,0.209,1.977,0.626l-1.264,3.243c-0.482-0.224-0.863-0.335-1.145-0.335c-0.533,0-0.948,0.246-1.242,0.738
			c-0.422,0.693-0.633,1.99-0.633,3.892v3.981h-4.1V5.519L236.179,5.519z"/>
		<path fill="#0B3357" d="M243.417,11.49c0-1.812,0.547-3.305,1.645-4.479c1.097-1.174,2.576-1.761,4.441-1.761
			c2.133,0,3.743,0.69,4.832,2.069c0.877,1.111,1.314,2.479,1.314,4.104c0,1.827-0.543,3.324-1.631,4.49
			c-1.086,1.168-2.588,1.75-4.506,1.75c-1.712,0-3.097-0.483-4.15-1.453C244.063,15.01,243.417,13.437,243.417,11.49z
			 M247.507,11.479c0,1.059,0.192,1.842,0.577,2.349c0.384,0.507,0.867,0.761,1.448,0.761c0.589,0,1.072-0.251,1.449-0.75
			s0.565-1.301,0.565-2.404c0-1.029-0.19-1.795-0.571-2.298c-0.382-0.503-0.853-0.755-1.412-0.755c-0.597,0-1.088,0.256-1.476,0.766
			C247.701,9.658,247.507,10.436,247.507,11.479z"/>
		<path fill="#0B3357" d="M256.472,1h4.17v8.463l3.049-3.945h5.023l-3.82,4.16l4.041,7.717h-4.599l-2.157-4.761l-1.537,1.674v3.087
			h-4.17V1L256.472,1z"/>
		<path fill="#0B3357" d="M280.403,12.586h-8.182c0.072,0.73,0.25,1.275,0.53,1.633c0.396,0.514,0.909,0.771,1.544,0.771
			c0.401,0,0.782-0.111,1.145-0.336c0.221-0.142,0.457-0.392,0.711-0.749l4.021,0.414c-0.615,1.192-1.357,2.048-2.227,2.565
			c-0.869,0.52-2.115,0.777-3.74,0.777c-1.41,0-2.52-0.221-3.328-0.665c-0.809-0.443-1.479-1.147-2.01-2.113
			c-0.532-0.966-0.799-2.101-0.799-3.405c0-1.856,0.533-3.359,1.6-4.507s2.539-1.722,4.418-1.722c1.523,0,2.727,0.257,3.609,0.771
			c0.883,0.515,1.555,1.26,2.016,2.237c0.461,0.977,0.691,2.248,0.691,3.813V12.586L280.403,12.586z M276.253,10.406
			c-0.08-0.879-0.293-1.51-0.637-1.89c-0.346-0.38-0.797-0.57-1.359-0.57c-0.648,0-1.166,0.287-1.555,0.861
			c-0.246,0.358-0.404,0.892-0.471,1.6L276.253,10.406L276.253,10.406z"/>
	</g>
</g>
</svg>
